M48
;DRILL file {KiCad 4.0.5+dfsg1-4} date Mon Apr  3 14:52:09 2017
;FORMAT={-:-/ absolute / inch / decimal}
FMAT,2
INCH,TZ
T1C0.031
%
G90
G05
M72
T1
X4.2913Y-4.3307
X4.2913Y-4.4307
X4.2913Y-4.5307
X4.2913Y-4.6307
X4.2913Y-4.7307
X4.2913Y-4.8307
X4.2913Y-4.9307
X4.2913Y-5.0307
X4.2913Y-5.1307
X4.2913Y-5.2307
X4.2913Y-5.3307
X4.2913Y-5.4307
X4.2913Y-5.5307
X4.2913Y-5.6307
X4.5913Y-4.3307
X4.5913Y-4.4307
X4.5913Y-4.5307
X4.5913Y-4.6307
X4.5913Y-4.7307
X4.5913Y-4.8307
X4.5913Y-4.9307
X4.5913Y-5.0307
X4.5913Y-5.1307
X4.5913Y-5.2307
X4.5913Y-5.3307
X4.5913Y-5.4307
X4.5913Y-5.5307
X4.5913Y-5.6307
T0
M30
