%TF.GenerationSoftware,KiCad,Pcbnew,4.0.2+dfsg1-stable*%
%TF.CreationDate,2018-07-14T12:02:58+02:00*%
%TF.ProjectId,carte_7816,63617274655F373831362E6B69636164,rev?*%
%TF.FileFunction,Soldermask,Bot*%
%FSLAX46Y46*%
G04 Gerber Fmt 4.6, Leading zero omitted, Abs format (unit mm)*
G04 Created by KiCad (PCBNEW 4.0.2+dfsg1-stable) date sam. 14 juil. 2018 12:02:58 CEST*
%MOMM*%
G01*
G04 APERTURE LIST*
%ADD10C,0.150000*%
%ADD11R,0.950000X2.000000*%
%ADD12R,2.000000X0.950000*%
%ADD13C,0.254000*%
G04 APERTURE END LIST*
D10*
X85471000Y-2413000D02*
X85471000Y-51562000D01*
X2413000Y-53975000D02*
X83058000Y-53975000D01*
X0Y-2413000D02*
X0Y-51562000D01*
X83058000Y0D02*
X2413000Y0D01*
X83058000Y-53975000D02*
G75*
G03X85471000Y-51562000I0J2413000D01*
G01*
X0Y-51562000D02*
G75*
G03X2413000Y-53975000I2413000J0D01*
G01*
X2413000Y0D02*
G75*
G03X0Y-2413000I0J-2413000D01*
G01*
X85471000Y-2413000D02*
G75*
G03X83058000Y0I-2413000J0D01*
G01*
D11*
X13202000Y-20388000D03*
X14002000Y-20388000D03*
X14802000Y-20388000D03*
X15602000Y-20388000D03*
X16402000Y-20388000D03*
X17202000Y-20388000D03*
X18002000Y-20388000D03*
X18802000Y-20388000D03*
D12*
X20252000Y-21838000D03*
X20252000Y-22638000D03*
X20252000Y-23438000D03*
X20252000Y-24238000D03*
X20252000Y-25038000D03*
X20252000Y-25838000D03*
X20252000Y-26638000D03*
X20252000Y-27438000D03*
D11*
X18802000Y-28888000D03*
X18002000Y-28888000D03*
X17202000Y-28888000D03*
X16402000Y-28888000D03*
X15602000Y-28888000D03*
X14802000Y-28888000D03*
X14002000Y-28888000D03*
X13202000Y-28888000D03*
D12*
X11752000Y-27438000D03*
X11752000Y-26638000D03*
X11752000Y-25838000D03*
X11752000Y-25038000D03*
X11752000Y-24238000D03*
X11752000Y-23438000D03*
X11752000Y-22638000D03*
X11752000Y-21838000D03*
D13*
G36*
X68961000Y-21082000D02*
X64008000Y-21082000D01*
X64008000Y-18923000D01*
X68961000Y-18923000D01*
X68961000Y-21082000D01*
X68961000Y-21082000D01*
G37*
X68961000Y-21082000D02*
X64008000Y-21082000D01*
X64008000Y-18923000D01*
X68961000Y-18923000D01*
X68961000Y-21082000D01*
G36*
X68961000Y-23622000D02*
X64008000Y-23622000D01*
X64008000Y-21590000D01*
X68961000Y-21590000D01*
X68961000Y-23622000D01*
X68961000Y-23622000D01*
G37*
X68961000Y-23622000D02*
X64008000Y-23622000D01*
X64008000Y-21590000D01*
X68961000Y-21590000D01*
X68961000Y-23622000D01*
G36*
X68961000Y-26162000D02*
X64008000Y-26162000D01*
X64008000Y-24130000D01*
X68961000Y-24130000D01*
X68961000Y-26162000D01*
X68961000Y-26162000D01*
G37*
X68961000Y-26162000D02*
X64008000Y-26162000D01*
X64008000Y-24130000D01*
X68961000Y-24130000D01*
X68961000Y-26162000D01*
G36*
X68961000Y-28702000D02*
X64008000Y-28702000D01*
X64008000Y-26670000D01*
X68961000Y-26670000D01*
X68961000Y-28702000D01*
X68961000Y-28702000D01*
G37*
X68961000Y-28702000D02*
X64008000Y-28702000D01*
X64008000Y-26670000D01*
X68961000Y-26670000D01*
X68961000Y-28702000D01*
G36*
X76708000Y-21082000D02*
X71628000Y-21082000D01*
X71628000Y-18923000D01*
X76708000Y-18923000D01*
X76708000Y-21082000D01*
X76708000Y-21082000D01*
G37*
X76708000Y-21082000D02*
X71628000Y-21082000D01*
X71628000Y-18923000D01*
X76708000Y-18923000D01*
X76708000Y-21082000D01*
G36*
X76708000Y-23622000D02*
X71628000Y-23622000D01*
X71628000Y-21590000D01*
X76708000Y-21590000D01*
X76708000Y-23622000D01*
X76708000Y-23622000D01*
G37*
X76708000Y-23622000D02*
X71628000Y-23622000D01*
X71628000Y-21590000D01*
X76708000Y-21590000D01*
X76708000Y-23622000D01*
G36*
X76708000Y-26162000D02*
X71628000Y-26162000D01*
X71628000Y-24130000D01*
X76708000Y-24130000D01*
X76708000Y-26162000D01*
X76708000Y-26162000D01*
G37*
X76708000Y-26162000D02*
X71628000Y-26162000D01*
X71628000Y-24130000D01*
X76708000Y-24130000D01*
X76708000Y-26162000D01*
G36*
X76708000Y-28829000D02*
X71628000Y-28829000D01*
X71628000Y-26670000D01*
X76708000Y-26670000D01*
X76708000Y-28829000D01*
X76708000Y-28829000D01*
G37*
X76708000Y-28829000D02*
X71628000Y-28829000D01*
X71628000Y-26670000D01*
X76708000Y-26670000D01*
X76708000Y-28829000D01*
M02*
