%TF.GenerationSoftware,KiCad,Pcbnew,4.0.2+dfsg1-stable*%
%TF.CreationDate,2018-07-14T12:02:58+02:00*%
%TF.ProjectId,carte_7816,63617274655F373831362E6B69636164,rev?*%
%TF.FileFunction,Legend,Bot*%
%FSLAX46Y46*%
G04 Gerber Fmt 4.6, Leading zero omitted, Abs format (unit mm)*
G04 Created by KiCad (PCBNEW 4.0.2+dfsg1-stable) date sam. 14 juil. 2018 12:02:58 CEST*
%MOMM*%
G01*
G04 APERTURE LIST*
%ADD10C,0.150000*%
G04 APERTURE END LIST*
D10*
X85471000Y-2413000D02*
X85471000Y-51562000D01*
X2413000Y-53975000D02*
X83058000Y-53975000D01*
X0Y-2413000D02*
X0Y-51562000D01*
X83058000Y0D02*
X2413000Y0D01*
X83058000Y-53975000D02*
G75*
G03X85471000Y-51562000I0J2413000D01*
G01*
X0Y-51562000D02*
G75*
G03X2413000Y-53975000I2413000J0D01*
G01*
X2413000Y0D02*
G75*
G03X0Y-2413000I0J-2413000D01*
G01*
X85471000Y-2413000D02*
G75*
G03X83058000Y0I-2413000J0D01*
G01*
X12377000Y-21013000D02*
X12602000Y-21013000D01*
X12377000Y-28263000D02*
X12702000Y-28263000D01*
X19627000Y-28263000D02*
X19302000Y-28263000D01*
X19627000Y-21013000D02*
X19302000Y-21013000D01*
X12377000Y-21013000D02*
X12377000Y-21338000D01*
X19627000Y-21013000D02*
X19627000Y-21338000D01*
X19627000Y-28263000D02*
X19627000Y-27938000D01*
X12377000Y-28263000D02*
X12377000Y-27938000D01*
X12602000Y-21013000D02*
X12602000Y-19588000D01*
X20549619Y-31154667D02*
X20073428Y-31154667D01*
X20644857Y-31440381D02*
X20311524Y-30440381D01*
X19978190Y-31440381D01*
X19787714Y-30440381D02*
X19216285Y-30440381D01*
X19502000Y-31440381D02*
X19502000Y-30440381D01*
X18882952Y-31440381D02*
X18882952Y-30773714D01*
X18882952Y-30868952D02*
X18835333Y-30821333D01*
X18740095Y-30773714D01*
X18597237Y-30773714D01*
X18501999Y-30821333D01*
X18454380Y-30916571D01*
X18454380Y-31440381D01*
X18454380Y-30916571D02*
X18406761Y-30821333D01*
X18311523Y-30773714D01*
X18168666Y-30773714D01*
X18073428Y-30821333D01*
X18025809Y-30916571D01*
X18025809Y-31440381D01*
X17168666Y-31392762D02*
X17263904Y-31440381D01*
X17454381Y-31440381D01*
X17549619Y-31392762D01*
X17597238Y-31297524D01*
X17597238Y-30916571D01*
X17549619Y-30821333D01*
X17454381Y-30773714D01*
X17263904Y-30773714D01*
X17168666Y-30821333D01*
X17121047Y-30916571D01*
X17121047Y-31011810D01*
X17597238Y-31107048D01*
X16263904Y-30773714D02*
X16263904Y-31583238D01*
X16311523Y-31678476D01*
X16359142Y-31726095D01*
X16454381Y-31773714D01*
X16597238Y-31773714D01*
X16692476Y-31726095D01*
X16263904Y-31392762D02*
X16359142Y-31440381D01*
X16549619Y-31440381D01*
X16644857Y-31392762D01*
X16692476Y-31345143D01*
X16740095Y-31249905D01*
X16740095Y-30964190D01*
X16692476Y-30868952D01*
X16644857Y-30821333D01*
X16549619Y-30773714D01*
X16359142Y-30773714D01*
X16263904Y-30821333D01*
X15359142Y-31440381D02*
X15359142Y-30916571D01*
X15406761Y-30821333D01*
X15501999Y-30773714D01*
X15692476Y-30773714D01*
X15787714Y-30821333D01*
X15359142Y-31392762D02*
X15454380Y-31440381D01*
X15692476Y-31440381D01*
X15787714Y-31392762D01*
X15835333Y-31297524D01*
X15835333Y-31202286D01*
X15787714Y-31107048D01*
X15692476Y-31059429D01*
X15454380Y-31059429D01*
X15359142Y-31011810D01*
X14978190Y-30440381D02*
X14359142Y-30440381D01*
X14692476Y-30821333D01*
X14549618Y-30821333D01*
X14454380Y-30868952D01*
X14406761Y-30916571D01*
X14359142Y-31011810D01*
X14359142Y-31249905D01*
X14406761Y-31345143D01*
X14454380Y-31392762D01*
X14549618Y-31440381D01*
X14835333Y-31440381D01*
X14930571Y-31392762D01*
X14978190Y-31345143D01*
X13978190Y-30535619D02*
X13930571Y-30488000D01*
X13835333Y-30440381D01*
X13597237Y-30440381D01*
X13501999Y-30488000D01*
X13454380Y-30535619D01*
X13406761Y-30630857D01*
X13406761Y-30726095D01*
X13454380Y-30868952D01*
X14025809Y-31440381D01*
X13406761Y-31440381D01*
X12835333Y-30868952D02*
X12930571Y-30821333D01*
X12978190Y-30773714D01*
X13025809Y-30678476D01*
X13025809Y-30630857D01*
X12978190Y-30535619D01*
X12930571Y-30488000D01*
X12835333Y-30440381D01*
X12644856Y-30440381D01*
X12549618Y-30488000D01*
X12501999Y-30535619D01*
X12454380Y-30630857D01*
X12454380Y-30678476D01*
X12501999Y-30773714D01*
X12549618Y-30821333D01*
X12644856Y-30868952D01*
X12835333Y-30868952D01*
X12930571Y-30916571D01*
X12978190Y-30964190D01*
X13025809Y-31059429D01*
X13025809Y-31249905D01*
X12978190Y-31345143D01*
X12930571Y-31392762D01*
X12835333Y-31440381D01*
X12644856Y-31440381D01*
X12549618Y-31392762D01*
X12501999Y-31345143D01*
X12454380Y-31249905D01*
X12454380Y-31059429D01*
X12501999Y-30964190D01*
X12549618Y-30916571D01*
X12644856Y-30868952D01*
X12025809Y-31440381D02*
X12025809Y-30440381D01*
X11644856Y-30440381D01*
X11549618Y-30488000D01*
X11501999Y-30535619D01*
X11454380Y-30630857D01*
X11454380Y-30773714D01*
X11501999Y-30868952D01*
X11549618Y-30916571D01*
X11644856Y-30964190D01*
X12025809Y-30964190D01*
X71619905Y-31900762D02*
X71477048Y-31948381D01*
X71238952Y-31948381D01*
X71143714Y-31900762D01*
X71096095Y-31853143D01*
X71048476Y-31757905D01*
X71048476Y-31662667D01*
X71096095Y-31567429D01*
X71143714Y-31519810D01*
X71238952Y-31472190D01*
X71429429Y-31424571D01*
X71524667Y-31376952D01*
X71572286Y-31329333D01*
X71619905Y-31234095D01*
X71619905Y-31138857D01*
X71572286Y-31043619D01*
X71524667Y-30996000D01*
X71429429Y-30948381D01*
X71191333Y-30948381D01*
X71048476Y-30996000D01*
X70048476Y-31853143D02*
X70096095Y-31900762D01*
X70238952Y-31948381D01*
X70334190Y-31948381D01*
X70477048Y-31900762D01*
X70572286Y-31805524D01*
X70619905Y-31710286D01*
X70667524Y-31519810D01*
X70667524Y-31376952D01*
X70619905Y-31186476D01*
X70572286Y-31091238D01*
X70477048Y-30996000D01*
X70334190Y-30948381D01*
X70238952Y-30948381D01*
X70096095Y-30996000D01*
X70048476Y-31043619D01*
X69096095Y-31948381D02*
X69667524Y-31948381D01*
X69381810Y-31948381D02*
X69381810Y-30948381D01*
X69477048Y-31091238D01*
X69572286Y-31186476D01*
X69667524Y-31234095D01*
M02*
