%TF.GenerationSoftware,KiCad,Pcbnew,4.0.2+dfsg1-stable*%
%TF.CreationDate,2018-07-14T12:02:58+02:00*%
%TF.ProjectId,carte_7816,63617274655F373831362E6B69636164,rev?*%
%TF.FileFunction,Copper,L2,Bot,Signal*%
%FSLAX46Y46*%
G04 Gerber Fmt 4.6, Leading zero omitted, Abs format (unit mm)*
G04 Created by KiCad (PCBNEW 4.0.2+dfsg1-stable) date sam. 14 juil. 2018 12:02:58 CEST*
%MOMM*%
G01*
G04 APERTURE LIST*
%ADD10C,0.150000*%
%ADD11R,0.550000X1.600000*%
%ADD12R,1.600000X0.550000*%
%ADD13R,5.000000X2.100000*%
%ADD14C,0.600000*%
%ADD15C,1.100000*%
%ADD16C,0.400000*%
%ADD17C,0.420000*%
%ADD18C,0.200000*%
%ADD19C,0.254000*%
G04 APERTURE END LIST*
D10*
X85471000Y-2413000D02*
X85471000Y-51562000D01*
X2413000Y-53975000D02*
X83058000Y-53975000D01*
X0Y-2413000D02*
X0Y-51562000D01*
X83058000Y0D02*
X2413000Y0D01*
X83058000Y-53975000D02*
G75*
G03X85471000Y-51562000I0J2413000D01*
G01*
X0Y-51562000D02*
G75*
G03X2413000Y-53975000I2413000J0D01*
G01*
X2413000Y0D02*
G75*
G03X0Y-2413000I0J-2413000D01*
G01*
X85471000Y-2413000D02*
G75*
G03X83058000Y0I-2413000J0D01*
G01*
D11*
X13202000Y-20388000D03*
X14002000Y-20388000D03*
X14802000Y-20388000D03*
X15602000Y-20388000D03*
X16402000Y-20388000D03*
X17202000Y-20388000D03*
X18002000Y-20388000D03*
X18802000Y-20388000D03*
D12*
X20252000Y-21838000D03*
X20252000Y-22638000D03*
X20252000Y-23438000D03*
X20252000Y-24238000D03*
X20252000Y-25038000D03*
X20252000Y-25838000D03*
X20252000Y-26638000D03*
X20252000Y-27438000D03*
D11*
X18802000Y-28888000D03*
X18002000Y-28888000D03*
X17202000Y-28888000D03*
X16402000Y-28888000D03*
X15602000Y-28888000D03*
X14802000Y-28888000D03*
X14002000Y-28888000D03*
X13202000Y-28888000D03*
D12*
X11752000Y-27438000D03*
X11752000Y-26638000D03*
X11752000Y-25838000D03*
X11752000Y-25038000D03*
X11752000Y-24238000D03*
X11752000Y-23438000D03*
X11752000Y-22638000D03*
X11752000Y-21838000D03*
D13*
X74168000Y-20066000D03*
X74168000Y-22606000D03*
X74168000Y-25146000D03*
X74168000Y-27686000D03*
X66548000Y-20066000D03*
X66548000Y-22606000D03*
X66548000Y-25146000D03*
X66548000Y-27686000D03*
D14*
X25019000Y-24130000D03*
X25019000Y-40182800D03*
X24892000Y-7620000D03*
X25019000Y-19939000D03*
D15*
X74213100Y-20115000D02*
X74213100Y-17317100D01*
X74213100Y-17317100D02*
X72898000Y-16002000D01*
X72898000Y-16002000D02*
X17018000Y-16002000D01*
X17018000Y-16002000D02*
X16510000Y-16510000D01*
X16510000Y-18288000D02*
X16510000Y-16510000D01*
D16*
X16281400Y-18288000D02*
X15602000Y-18967400D01*
X16510000Y-18288000D02*
X16281400Y-18288000D01*
D17*
X17202000Y-18980000D02*
X16510000Y-18288000D01*
D16*
X17202000Y-18980000D02*
X16510000Y-18288000D01*
D18*
X17202000Y-18980000D02*
X16510000Y-18288000D01*
D16*
X15602000Y-18967400D02*
X15602000Y-20388000D01*
D17*
X17202000Y-20388000D02*
X17202000Y-18980000D01*
D16*
X17202000Y-20388000D02*
X17202000Y-22028000D01*
X18002000Y-22828000D02*
X18002000Y-28888000D01*
D18*
X18002000Y-22828000D02*
X18002000Y-28888000D01*
D16*
X17202000Y-22028000D02*
X18002000Y-22828000D01*
D18*
X17202000Y-22028000D02*
X18002000Y-22828000D01*
D17*
X14802000Y-20388000D02*
X14802000Y-17723000D01*
X14802000Y-17723000D02*
X14732000Y-17653000D01*
X14802000Y-20388000D02*
X14802000Y-23946000D01*
X16402000Y-20388000D02*
X16402000Y-23946000D01*
X15602000Y-28888000D02*
X15602000Y-30969000D01*
X15602000Y-30969000D02*
X15621000Y-30988000D01*
X15602000Y-28888000D02*
X15602000Y-24746000D01*
D18*
X15494000Y-28996000D02*
X15602000Y-28888000D01*
D16*
X14802000Y-23946000D02*
X15602000Y-24746000D01*
D18*
X14802000Y-23946000D02*
X15602000Y-24746000D01*
D17*
X16402000Y-23946000D02*
X15602000Y-24746000D01*
D16*
X15602000Y-24746000D02*
X16402000Y-23946000D01*
D17*
X14998700Y-24142700D02*
X15602000Y-24746000D01*
X14802000Y-23946000D02*
X14998700Y-24142700D01*
X20252000Y-26638000D02*
X22409400Y-26638000D01*
X22409400Y-26638000D02*
X24142700Y-24904700D01*
X24142700Y-24904700D02*
X24892000Y-24155400D01*
D16*
X22409400Y-26638000D02*
X24892000Y-24155400D01*
D18*
X24892000Y-24155400D02*
X24866600Y-24155400D01*
X24866600Y-24155400D02*
X22352000Y-26670000D01*
X22352000Y-26670000D02*
X20284000Y-26670000D01*
X20284000Y-26670000D02*
X20252000Y-26638000D01*
D15*
X24244300Y-24904700D02*
X24142700Y-24904700D01*
X25019000Y-24130000D02*
X24244300Y-24904700D01*
X67157600Y-40182800D02*
X25019000Y-40182800D01*
X74213100Y-33127300D02*
X67157600Y-40182800D01*
X30939000Y-25195000D02*
X66593100Y-25195000D01*
D18*
X66593100Y-25195000D02*
X30939000Y-25195000D01*
D15*
X28696000Y-27438000D02*
X30939000Y-25195000D01*
D18*
X30939000Y-25195000D02*
X28696000Y-27438000D01*
D15*
X23799800Y-27438000D02*
X28696000Y-27438000D01*
D17*
X23799800Y-27438000D02*
X23958200Y-27279600D01*
X23977600Y-27279600D02*
X23799800Y-27279600D01*
X23958200Y-27279600D02*
X23977600Y-27279600D01*
D16*
X23799800Y-27127200D02*
X23799800Y-27279600D01*
X23799800Y-27279600D02*
X23799800Y-27438000D01*
X23489000Y-27438000D02*
X23799800Y-27127200D01*
D17*
X20252000Y-27438000D02*
X23799800Y-27438000D01*
D16*
X20252000Y-27438000D02*
X23489000Y-27438000D01*
D15*
X66593100Y-27735000D02*
X32053000Y-27735000D01*
D17*
X18802000Y-28888000D02*
X18802000Y-31248000D01*
X18802000Y-31248000D02*
X18796000Y-31242000D01*
D15*
X19050000Y-31496000D02*
X18796000Y-31242000D01*
X19304000Y-31496000D02*
X19050000Y-31496000D01*
D16*
X18802000Y-31248000D02*
X18802000Y-30994000D01*
D18*
X19304000Y-31496000D02*
X18802000Y-30994000D01*
D15*
X28292000Y-31496000D02*
X19304000Y-31496000D01*
D18*
X19304000Y-31496000D02*
X28292000Y-31496000D01*
D15*
X32053000Y-27735000D02*
X28292000Y-31496000D01*
D18*
X32053000Y-27735000D02*
X28448000Y-31340000D01*
X28292000Y-31496000D02*
X28448000Y-31340000D01*
X28448000Y-31340000D02*
X28448000Y-31242000D01*
X28448000Y-31242000D02*
X28448000Y-31340000D01*
D15*
X24892000Y-19812000D02*
X23876000Y-18796000D01*
X23876000Y-18796000D02*
X22860000Y-17780000D01*
D17*
X18002000Y-18574000D02*
X18796000Y-17780000D01*
X18002000Y-20388000D02*
X18002000Y-18574000D01*
X18002000Y-18574000D02*
X18288000Y-18288000D01*
D15*
X22860000Y-17780000D02*
X18796000Y-17780000D01*
D18*
X18034000Y-18542000D02*
X18034000Y-20356000D01*
X18796000Y-17780000D02*
X18288000Y-18288000D01*
X18288000Y-18288000D02*
X18034000Y-18542000D01*
X22860000Y-17780000D02*
X18796000Y-17780000D01*
X18034000Y-20356000D02*
X18002000Y-20388000D01*
D15*
X25019000Y-19939000D02*
X23876000Y-18796000D01*
X26162000Y-7620000D02*
X24892000Y-7620000D01*
X75184000Y-7620000D02*
X26162000Y-7620000D01*
X81280000Y-13716000D02*
X75184000Y-7620000D01*
X81280000Y-22860000D02*
X81280000Y-13716000D01*
X78945000Y-25195000D02*
X81280000Y-22860000D01*
X76327000Y-14605000D02*
X73914000Y-12192000D01*
X15748000Y-12192000D02*
X13589000Y-14351000D01*
X73914000Y-12192000D02*
X15748000Y-12192000D01*
X8128000Y-23622000D02*
X8636000Y-24130000D01*
X8128000Y-20066000D02*
X8128000Y-23622000D01*
D16*
X11752000Y-24238000D02*
X8744000Y-24238000D01*
X8744000Y-24238000D02*
X8636000Y-24130000D01*
D18*
X11752000Y-24238000D02*
X8274000Y-24238000D01*
X8274000Y-24238000D02*
X8382000Y-24130000D01*
X8382000Y-24130000D02*
X8636000Y-24130000D01*
D15*
X8128000Y-19812000D02*
X8128000Y-20066000D01*
X13589000Y-14351000D02*
X8128000Y-19812000D01*
X76327000Y-14605000D02*
X78740000Y-17018000D01*
X78740000Y-21590000D02*
X78740000Y-17018000D01*
X77675000Y-22655000D02*
X78740000Y-21590000D01*
X74213100Y-22655000D02*
X77675000Y-22655000D01*
X74213100Y-25195000D02*
X78945000Y-25195000D01*
X74213100Y-27735000D02*
X74213100Y-33127300D01*
D19*
G36*
X83566000Y-52197000D02*
X1778000Y-52197000D01*
X1778000Y-19812000D01*
X6942999Y-19812000D01*
X6943000Y-19812005D01*
X6943000Y-23621995D01*
X6942999Y-23622000D01*
X7033203Y-24075480D01*
X7290078Y-24459922D01*
X7798078Y-24967921D01*
X8182520Y-25224797D01*
X8636000Y-25315000D01*
X9089479Y-25224797D01*
X9316659Y-25073000D01*
X10304560Y-25073000D01*
X10304560Y-25313000D01*
X10328944Y-25442589D01*
X10304560Y-25563000D01*
X10304560Y-26113000D01*
X10328944Y-26242589D01*
X10304560Y-26363000D01*
X10304560Y-26913000D01*
X10328944Y-27042589D01*
X10304560Y-27163000D01*
X10304560Y-27713000D01*
X10348838Y-27948317D01*
X10487910Y-28164441D01*
X10700110Y-28309431D01*
X10952000Y-28360440D01*
X12279560Y-28360440D01*
X12279560Y-29688000D01*
X12323838Y-29923317D01*
X12462910Y-30139441D01*
X12675110Y-30284431D01*
X12927000Y-30335440D01*
X13477000Y-30335440D01*
X13606589Y-30311056D01*
X13727000Y-30335440D01*
X14277000Y-30335440D01*
X14406589Y-30311056D01*
X14527000Y-30335440D01*
X15077000Y-30335440D01*
X15182705Y-30315550D01*
X15200690Y-30323000D01*
X15316250Y-30323000D01*
X15412651Y-30226599D01*
X15528441Y-30152090D01*
X15601884Y-30044603D01*
X15662910Y-30139441D01*
X15793245Y-30228495D01*
X15887750Y-30323000D01*
X16003310Y-30323000D01*
X16023753Y-30314532D01*
X16127000Y-30335440D01*
X16677000Y-30335440D01*
X16806589Y-30311056D01*
X16927000Y-30335440D01*
X17477000Y-30335440D01*
X17606589Y-30311056D01*
X17727000Y-30335440D01*
X17957000Y-30335440D01*
X17957000Y-30405691D01*
X17701203Y-30788520D01*
X17610999Y-31242000D01*
X17701203Y-31695480D01*
X17958078Y-32079922D01*
X18212076Y-32333919D01*
X18212078Y-32333922D01*
X18596520Y-32590797D01*
X19050000Y-32681000D01*
X28291995Y-32681000D01*
X28292000Y-32681001D01*
X28745480Y-32590797D01*
X29129922Y-32333922D01*
X32543843Y-28920000D01*
X63435182Y-28920000D01*
X63444838Y-28971317D01*
X63583910Y-29187441D01*
X63796110Y-29332431D01*
X64048000Y-29383440D01*
X69048000Y-29383440D01*
X69283317Y-29339162D01*
X69499441Y-29200090D01*
X69644431Y-28987890D01*
X69695440Y-28736000D01*
X69695440Y-26636000D01*
X69652524Y-26407924D01*
X69695440Y-26196000D01*
X69695440Y-24096000D01*
X69652524Y-23867924D01*
X69695440Y-23656000D01*
X69695440Y-21556000D01*
X69651162Y-21320683D01*
X69650782Y-21320092D01*
X69683000Y-21242310D01*
X69683000Y-20351750D01*
X69524250Y-20193000D01*
X66675000Y-20193000D01*
X66675000Y-20213000D01*
X66421000Y-20213000D01*
X66421000Y-20193000D01*
X63571750Y-20193000D01*
X63413000Y-20351750D01*
X63413000Y-21242310D01*
X63447310Y-21325142D01*
X63400560Y-21556000D01*
X63400560Y-23656000D01*
X63443476Y-23884076D01*
X63417975Y-24010000D01*
X30939005Y-24010000D01*
X30939000Y-24009999D01*
X30485520Y-24100203D01*
X30101078Y-24357078D01*
X28205156Y-26253000D01*
X23989410Y-26253000D01*
X24152710Y-26089700D01*
X24244295Y-26089700D01*
X24244300Y-26089701D01*
X24697780Y-25999497D01*
X25082222Y-25742622D01*
X25856921Y-24967922D01*
X26113797Y-24583480D01*
X26204000Y-24130000D01*
X26113797Y-23676521D01*
X25856921Y-23292079D01*
X25472479Y-23035203D01*
X25019000Y-22945000D01*
X24565520Y-23035203D01*
X24181078Y-23292079D01*
X23610965Y-23862191D01*
X23304778Y-24066778D01*
X23047903Y-24451220D01*
X22960186Y-24892204D01*
X22059390Y-25793000D01*
X21699440Y-25793000D01*
X21699440Y-25563000D01*
X21675056Y-25433411D01*
X21699440Y-25313000D01*
X21699440Y-24763000D01*
X21675056Y-24633411D01*
X21699440Y-24513000D01*
X21699440Y-23963000D01*
X21675056Y-23833411D01*
X21699440Y-23713000D01*
X21699440Y-23163000D01*
X21675056Y-23033411D01*
X21699440Y-22913000D01*
X21699440Y-22363000D01*
X21675056Y-22233411D01*
X21699440Y-22113000D01*
X21699440Y-21563000D01*
X21655162Y-21327683D01*
X21516090Y-21111559D01*
X21303890Y-20966569D01*
X21052000Y-20915560D01*
X19724440Y-20915560D01*
X19724440Y-19588000D01*
X19680162Y-19352683D01*
X19541090Y-19136559D01*
X19328890Y-18991569D01*
X19197688Y-18965000D01*
X22369156Y-18965000D01*
X24054078Y-20649922D01*
X24054081Y-20649924D01*
X24181078Y-20776921D01*
X24565520Y-21033797D01*
X25019000Y-21124001D01*
X25472480Y-21033797D01*
X25856921Y-20776921D01*
X26113797Y-20392480D01*
X26204001Y-19939000D01*
X26113797Y-19485520D01*
X25856921Y-19101078D01*
X25729924Y-18974081D01*
X25729922Y-18974078D01*
X25645534Y-18889690D01*
X63413000Y-18889690D01*
X63413000Y-19780250D01*
X63571750Y-19939000D01*
X66421000Y-19939000D01*
X66421000Y-18539750D01*
X66675000Y-18539750D01*
X66675000Y-19939000D01*
X69524250Y-19939000D01*
X69683000Y-19780250D01*
X69683000Y-18889690D01*
X69586327Y-18656301D01*
X69407698Y-18477673D01*
X69174309Y-18381000D01*
X66833750Y-18381000D01*
X66675000Y-18539750D01*
X66421000Y-18539750D01*
X66262250Y-18381000D01*
X63921691Y-18381000D01*
X63688302Y-18477673D01*
X63509673Y-18656301D01*
X63413000Y-18889690D01*
X25645534Y-18889690D01*
X23942844Y-17187000D01*
X72407156Y-17187000D01*
X73028100Y-17807943D01*
X73028100Y-18368560D01*
X71668000Y-18368560D01*
X71432683Y-18412838D01*
X71216559Y-18551910D01*
X71071569Y-18764110D01*
X71020560Y-19016000D01*
X71020560Y-21116000D01*
X71063476Y-21344076D01*
X71020560Y-21556000D01*
X71020560Y-23656000D01*
X71063476Y-23884076D01*
X71020560Y-24096000D01*
X71020560Y-26196000D01*
X71063476Y-26424076D01*
X71020560Y-26636000D01*
X71020560Y-28736000D01*
X71064838Y-28971317D01*
X71203910Y-29187441D01*
X71416110Y-29332431D01*
X71668000Y-29383440D01*
X73028100Y-29383440D01*
X73028100Y-32636457D01*
X66666756Y-38997800D01*
X25019000Y-38997800D01*
X24565520Y-39088003D01*
X24181078Y-39344878D01*
X23924203Y-39729320D01*
X23834000Y-40182800D01*
X23924203Y-40636280D01*
X24181078Y-41020722D01*
X24565520Y-41277597D01*
X25019000Y-41367800D01*
X67157595Y-41367800D01*
X67157600Y-41367801D01*
X67611080Y-41277597D01*
X67995522Y-41020722D01*
X75051019Y-33965224D01*
X75051022Y-33965222D01*
X75307897Y-33580780D01*
X75322863Y-33505542D01*
X75398101Y-33127300D01*
X75398100Y-33127295D01*
X75398100Y-29383440D01*
X76668000Y-29383440D01*
X76903317Y-29339162D01*
X77119441Y-29200090D01*
X77264431Y-28987890D01*
X77315440Y-28736000D01*
X77315440Y-26636000D01*
X77272524Y-26407924D01*
X77278179Y-26380000D01*
X78944995Y-26380000D01*
X78945000Y-26380001D01*
X79398480Y-26289797D01*
X79782922Y-26032922D01*
X82117919Y-23697924D01*
X82117922Y-23697922D01*
X82374797Y-23313480D01*
X82398332Y-23195162D01*
X82465001Y-22860000D01*
X82465000Y-22859995D01*
X82465000Y-13716005D01*
X82465001Y-13716000D01*
X82374797Y-13262520D01*
X82370576Y-13256203D01*
X82117922Y-12878078D01*
X82117919Y-12878076D01*
X76021922Y-6782078D01*
X75637480Y-6525203D01*
X75184000Y-6434999D01*
X75183995Y-6435000D01*
X24892000Y-6435000D01*
X24438520Y-6525203D01*
X24054078Y-6782078D01*
X23797203Y-7166520D01*
X23707000Y-7620000D01*
X23797203Y-8073480D01*
X24054078Y-8457922D01*
X24438520Y-8714797D01*
X24892000Y-8805000D01*
X74693156Y-8805000D01*
X80095000Y-14206843D01*
X80095000Y-22369157D01*
X78454156Y-24010000D01*
X77299258Y-24010000D01*
X77272524Y-23867924D01*
X77278179Y-23840000D01*
X77674995Y-23840000D01*
X77675000Y-23840001D01*
X78128480Y-23749797D01*
X78512922Y-23492922D01*
X79577919Y-22427924D01*
X79577922Y-22427922D01*
X79834797Y-22043480D01*
X79925000Y-21590000D01*
X79925000Y-17018000D01*
X79834797Y-16564520D01*
X79577922Y-16180078D01*
X79577919Y-16180076D01*
X77164922Y-13767078D01*
X77164919Y-13767076D01*
X74751922Y-11354078D01*
X74367480Y-11097203D01*
X73914000Y-11006999D01*
X73913995Y-11007000D01*
X15748005Y-11007000D01*
X15748000Y-11006999D01*
X15294520Y-11097203D01*
X14910078Y-11354078D01*
X14910076Y-11354081D01*
X12751078Y-13513078D01*
X12751076Y-13513081D01*
X7290078Y-18974078D01*
X7033203Y-19358520D01*
X6942999Y-19812000D01*
X1778000Y-19812000D01*
X1778000Y-1778000D01*
X83566000Y-1778000D01*
X83566000Y-52197000D01*
X83566000Y-52197000D01*
G37*
X83566000Y-52197000D02*
X1778000Y-52197000D01*
X1778000Y-19812000D01*
X6942999Y-19812000D01*
X6943000Y-19812005D01*
X6943000Y-23621995D01*
X6942999Y-23622000D01*
X7033203Y-24075480D01*
X7290078Y-24459922D01*
X7798078Y-24967921D01*
X8182520Y-25224797D01*
X8636000Y-25315000D01*
X9089479Y-25224797D01*
X9316659Y-25073000D01*
X10304560Y-25073000D01*
X10304560Y-25313000D01*
X10328944Y-25442589D01*
X10304560Y-25563000D01*
X10304560Y-26113000D01*
X10328944Y-26242589D01*
X10304560Y-26363000D01*
X10304560Y-26913000D01*
X10328944Y-27042589D01*
X10304560Y-27163000D01*
X10304560Y-27713000D01*
X10348838Y-27948317D01*
X10487910Y-28164441D01*
X10700110Y-28309431D01*
X10952000Y-28360440D01*
X12279560Y-28360440D01*
X12279560Y-29688000D01*
X12323838Y-29923317D01*
X12462910Y-30139441D01*
X12675110Y-30284431D01*
X12927000Y-30335440D01*
X13477000Y-30335440D01*
X13606589Y-30311056D01*
X13727000Y-30335440D01*
X14277000Y-30335440D01*
X14406589Y-30311056D01*
X14527000Y-30335440D01*
X15077000Y-30335440D01*
X15182705Y-30315550D01*
X15200690Y-30323000D01*
X15316250Y-30323000D01*
X15412651Y-30226599D01*
X15528441Y-30152090D01*
X15601884Y-30044603D01*
X15662910Y-30139441D01*
X15793245Y-30228495D01*
X15887750Y-30323000D01*
X16003310Y-30323000D01*
X16023753Y-30314532D01*
X16127000Y-30335440D01*
X16677000Y-30335440D01*
X16806589Y-30311056D01*
X16927000Y-30335440D01*
X17477000Y-30335440D01*
X17606589Y-30311056D01*
X17727000Y-30335440D01*
X17957000Y-30335440D01*
X17957000Y-30405691D01*
X17701203Y-30788520D01*
X17610999Y-31242000D01*
X17701203Y-31695480D01*
X17958078Y-32079922D01*
X18212076Y-32333919D01*
X18212078Y-32333922D01*
X18596520Y-32590797D01*
X19050000Y-32681000D01*
X28291995Y-32681000D01*
X28292000Y-32681001D01*
X28745480Y-32590797D01*
X29129922Y-32333922D01*
X32543843Y-28920000D01*
X63435182Y-28920000D01*
X63444838Y-28971317D01*
X63583910Y-29187441D01*
X63796110Y-29332431D01*
X64048000Y-29383440D01*
X69048000Y-29383440D01*
X69283317Y-29339162D01*
X69499441Y-29200090D01*
X69644431Y-28987890D01*
X69695440Y-28736000D01*
X69695440Y-26636000D01*
X69652524Y-26407924D01*
X69695440Y-26196000D01*
X69695440Y-24096000D01*
X69652524Y-23867924D01*
X69695440Y-23656000D01*
X69695440Y-21556000D01*
X69651162Y-21320683D01*
X69650782Y-21320092D01*
X69683000Y-21242310D01*
X69683000Y-20351750D01*
X69524250Y-20193000D01*
X66675000Y-20193000D01*
X66675000Y-20213000D01*
X66421000Y-20213000D01*
X66421000Y-20193000D01*
X63571750Y-20193000D01*
X63413000Y-20351750D01*
X63413000Y-21242310D01*
X63447310Y-21325142D01*
X63400560Y-21556000D01*
X63400560Y-23656000D01*
X63443476Y-23884076D01*
X63417975Y-24010000D01*
X30939005Y-24010000D01*
X30939000Y-24009999D01*
X30485520Y-24100203D01*
X30101078Y-24357078D01*
X28205156Y-26253000D01*
X23989410Y-26253000D01*
X24152710Y-26089700D01*
X24244295Y-26089700D01*
X24244300Y-26089701D01*
X24697780Y-25999497D01*
X25082222Y-25742622D01*
X25856921Y-24967922D01*
X26113797Y-24583480D01*
X26204000Y-24130000D01*
X26113797Y-23676521D01*
X25856921Y-23292079D01*
X25472479Y-23035203D01*
X25019000Y-22945000D01*
X24565520Y-23035203D01*
X24181078Y-23292079D01*
X23610965Y-23862191D01*
X23304778Y-24066778D01*
X23047903Y-24451220D01*
X22960186Y-24892204D01*
X22059390Y-25793000D01*
X21699440Y-25793000D01*
X21699440Y-25563000D01*
X21675056Y-25433411D01*
X21699440Y-25313000D01*
X21699440Y-24763000D01*
X21675056Y-24633411D01*
X21699440Y-24513000D01*
X21699440Y-23963000D01*
X21675056Y-23833411D01*
X21699440Y-23713000D01*
X21699440Y-23163000D01*
X21675056Y-23033411D01*
X21699440Y-22913000D01*
X21699440Y-22363000D01*
X21675056Y-22233411D01*
X21699440Y-22113000D01*
X21699440Y-21563000D01*
X21655162Y-21327683D01*
X21516090Y-21111559D01*
X21303890Y-20966569D01*
X21052000Y-20915560D01*
X19724440Y-20915560D01*
X19724440Y-19588000D01*
X19680162Y-19352683D01*
X19541090Y-19136559D01*
X19328890Y-18991569D01*
X19197688Y-18965000D01*
X22369156Y-18965000D01*
X24054078Y-20649922D01*
X24054081Y-20649924D01*
X24181078Y-20776921D01*
X24565520Y-21033797D01*
X25019000Y-21124001D01*
X25472480Y-21033797D01*
X25856921Y-20776921D01*
X26113797Y-20392480D01*
X26204001Y-19939000D01*
X26113797Y-19485520D01*
X25856921Y-19101078D01*
X25729924Y-18974081D01*
X25729922Y-18974078D01*
X25645534Y-18889690D01*
X63413000Y-18889690D01*
X63413000Y-19780250D01*
X63571750Y-19939000D01*
X66421000Y-19939000D01*
X66421000Y-18539750D01*
X66675000Y-18539750D01*
X66675000Y-19939000D01*
X69524250Y-19939000D01*
X69683000Y-19780250D01*
X69683000Y-18889690D01*
X69586327Y-18656301D01*
X69407698Y-18477673D01*
X69174309Y-18381000D01*
X66833750Y-18381000D01*
X66675000Y-18539750D01*
X66421000Y-18539750D01*
X66262250Y-18381000D01*
X63921691Y-18381000D01*
X63688302Y-18477673D01*
X63509673Y-18656301D01*
X63413000Y-18889690D01*
X25645534Y-18889690D01*
X23942844Y-17187000D01*
X72407156Y-17187000D01*
X73028100Y-17807943D01*
X73028100Y-18368560D01*
X71668000Y-18368560D01*
X71432683Y-18412838D01*
X71216559Y-18551910D01*
X71071569Y-18764110D01*
X71020560Y-19016000D01*
X71020560Y-21116000D01*
X71063476Y-21344076D01*
X71020560Y-21556000D01*
X71020560Y-23656000D01*
X71063476Y-23884076D01*
X71020560Y-24096000D01*
X71020560Y-26196000D01*
X71063476Y-26424076D01*
X71020560Y-26636000D01*
X71020560Y-28736000D01*
X71064838Y-28971317D01*
X71203910Y-29187441D01*
X71416110Y-29332431D01*
X71668000Y-29383440D01*
X73028100Y-29383440D01*
X73028100Y-32636457D01*
X66666756Y-38997800D01*
X25019000Y-38997800D01*
X24565520Y-39088003D01*
X24181078Y-39344878D01*
X23924203Y-39729320D01*
X23834000Y-40182800D01*
X23924203Y-40636280D01*
X24181078Y-41020722D01*
X24565520Y-41277597D01*
X25019000Y-41367800D01*
X67157595Y-41367800D01*
X67157600Y-41367801D01*
X67611080Y-41277597D01*
X67995522Y-41020722D01*
X75051019Y-33965224D01*
X75051022Y-33965222D01*
X75307897Y-33580780D01*
X75322863Y-33505542D01*
X75398101Y-33127300D01*
X75398100Y-33127295D01*
X75398100Y-29383440D01*
X76668000Y-29383440D01*
X76903317Y-29339162D01*
X77119441Y-29200090D01*
X77264431Y-28987890D01*
X77315440Y-28736000D01*
X77315440Y-26636000D01*
X77272524Y-26407924D01*
X77278179Y-26380000D01*
X78944995Y-26380000D01*
X78945000Y-26380001D01*
X79398480Y-26289797D01*
X79782922Y-26032922D01*
X82117919Y-23697924D01*
X82117922Y-23697922D01*
X82374797Y-23313480D01*
X82398332Y-23195162D01*
X82465001Y-22860000D01*
X82465000Y-22859995D01*
X82465000Y-13716005D01*
X82465001Y-13716000D01*
X82374797Y-13262520D01*
X82370576Y-13256203D01*
X82117922Y-12878078D01*
X82117919Y-12878076D01*
X76021922Y-6782078D01*
X75637480Y-6525203D01*
X75184000Y-6434999D01*
X75183995Y-6435000D01*
X24892000Y-6435000D01*
X24438520Y-6525203D01*
X24054078Y-6782078D01*
X23797203Y-7166520D01*
X23707000Y-7620000D01*
X23797203Y-8073480D01*
X24054078Y-8457922D01*
X24438520Y-8714797D01*
X24892000Y-8805000D01*
X74693156Y-8805000D01*
X80095000Y-14206843D01*
X80095000Y-22369157D01*
X78454156Y-24010000D01*
X77299258Y-24010000D01*
X77272524Y-23867924D01*
X77278179Y-23840000D01*
X77674995Y-23840000D01*
X77675000Y-23840001D01*
X78128480Y-23749797D01*
X78512922Y-23492922D01*
X79577919Y-22427924D01*
X79577922Y-22427922D01*
X79834797Y-22043480D01*
X79925000Y-21590000D01*
X79925000Y-17018000D01*
X79834797Y-16564520D01*
X79577922Y-16180078D01*
X79577919Y-16180076D01*
X77164922Y-13767078D01*
X77164919Y-13767076D01*
X74751922Y-11354078D01*
X74367480Y-11097203D01*
X73914000Y-11006999D01*
X73913995Y-11007000D01*
X15748005Y-11007000D01*
X15748000Y-11006999D01*
X15294520Y-11097203D01*
X14910078Y-11354078D01*
X14910076Y-11354081D01*
X12751078Y-13513078D01*
X12751076Y-13513081D01*
X7290078Y-18974078D01*
X7033203Y-19358520D01*
X6942999Y-19812000D01*
X1778000Y-19812000D01*
X1778000Y-1778000D01*
X83566000Y-1778000D01*
X83566000Y-52197000D01*
G36*
X14862910Y-21639441D02*
X14993245Y-21728495D01*
X15087750Y-21823000D01*
X15203310Y-21823000D01*
X15223753Y-21814532D01*
X15327000Y-21835440D01*
X15877000Y-21835440D01*
X15982705Y-21815550D01*
X16000690Y-21823000D01*
X16116250Y-21823000D01*
X16212651Y-21726599D01*
X16274998Y-21686480D01*
X16274998Y-21823000D01*
X16367000Y-21823000D01*
X16367000Y-22028000D01*
X16430561Y-22347541D01*
X16575489Y-22564441D01*
X16611566Y-22618434D01*
X17167000Y-23173868D01*
X17167000Y-27440560D01*
X16927000Y-27440560D01*
X16797411Y-27464944D01*
X16677000Y-27440560D01*
X16127000Y-27440560D01*
X16021295Y-27460450D01*
X16003310Y-27453000D01*
X15887750Y-27453000D01*
X15791349Y-27549401D01*
X15675559Y-27623910D01*
X15602116Y-27731397D01*
X15541090Y-27636559D01*
X15410755Y-27547505D01*
X15316250Y-27453000D01*
X15200690Y-27453000D01*
X15180247Y-27461468D01*
X15077000Y-27440560D01*
X14527000Y-27440560D01*
X14397411Y-27464944D01*
X14277000Y-27440560D01*
X13727000Y-27440560D01*
X13597411Y-27464944D01*
X13477000Y-27440560D01*
X13199440Y-27440560D01*
X13199440Y-27163000D01*
X13175056Y-27033411D01*
X13199440Y-26913000D01*
X13199440Y-26363000D01*
X13175056Y-26233411D01*
X13199440Y-26113000D01*
X13199440Y-25563000D01*
X13175056Y-25433411D01*
X13199440Y-25313000D01*
X13199440Y-24763000D01*
X13175056Y-24633411D01*
X13199440Y-24513000D01*
X13199440Y-23963000D01*
X13175056Y-23833411D01*
X13199440Y-23713000D01*
X13199440Y-23163000D01*
X13175056Y-23033411D01*
X13199440Y-22913000D01*
X13199440Y-22363000D01*
X13175056Y-22233411D01*
X13199440Y-22113000D01*
X13199440Y-21835440D01*
X13477000Y-21835440D01*
X13606589Y-21811056D01*
X13727000Y-21835440D01*
X14277000Y-21835440D01*
X14382705Y-21815550D01*
X14400690Y-21823000D01*
X14516250Y-21823000D01*
X14612651Y-21726599D01*
X14728441Y-21652090D01*
X14801884Y-21544603D01*
X14862910Y-21639441D01*
X14862910Y-21639441D01*
G37*
X14862910Y-21639441D02*
X14993245Y-21728495D01*
X15087750Y-21823000D01*
X15203310Y-21823000D01*
X15223753Y-21814532D01*
X15327000Y-21835440D01*
X15877000Y-21835440D01*
X15982705Y-21815550D01*
X16000690Y-21823000D01*
X16116250Y-21823000D01*
X16212651Y-21726599D01*
X16274998Y-21686480D01*
X16274998Y-21823000D01*
X16367000Y-21823000D01*
X16367000Y-22028000D01*
X16430561Y-22347541D01*
X16575489Y-22564441D01*
X16611566Y-22618434D01*
X17167000Y-23173868D01*
X17167000Y-27440560D01*
X16927000Y-27440560D01*
X16797411Y-27464944D01*
X16677000Y-27440560D01*
X16127000Y-27440560D01*
X16021295Y-27460450D01*
X16003310Y-27453000D01*
X15887750Y-27453000D01*
X15791349Y-27549401D01*
X15675559Y-27623910D01*
X15602116Y-27731397D01*
X15541090Y-27636559D01*
X15410755Y-27547505D01*
X15316250Y-27453000D01*
X15200690Y-27453000D01*
X15180247Y-27461468D01*
X15077000Y-27440560D01*
X14527000Y-27440560D01*
X14397411Y-27464944D01*
X14277000Y-27440560D01*
X13727000Y-27440560D01*
X13597411Y-27464944D01*
X13477000Y-27440560D01*
X13199440Y-27440560D01*
X13199440Y-27163000D01*
X13175056Y-27033411D01*
X13199440Y-26913000D01*
X13199440Y-26363000D01*
X13175056Y-26233411D01*
X13199440Y-26113000D01*
X13199440Y-25563000D01*
X13175056Y-25433411D01*
X13199440Y-25313000D01*
X13199440Y-24763000D01*
X13175056Y-24633411D01*
X13199440Y-24513000D01*
X13199440Y-23963000D01*
X13175056Y-23833411D01*
X13199440Y-23713000D01*
X13199440Y-23163000D01*
X13175056Y-23033411D01*
X13199440Y-22913000D01*
X13199440Y-22363000D01*
X13175056Y-22233411D01*
X13199440Y-22113000D01*
X13199440Y-21835440D01*
X13477000Y-21835440D01*
X13606589Y-21811056D01*
X13727000Y-21835440D01*
X14277000Y-21835440D01*
X14382705Y-21815550D01*
X14400690Y-21823000D01*
X14516250Y-21823000D01*
X14612651Y-21726599D01*
X14728441Y-21652090D01*
X14801884Y-21544603D01*
X14862910Y-21639441D01*
G36*
X75489076Y-15442919D02*
X75489078Y-15442922D01*
X77555000Y-17508843D01*
X77555000Y-21099157D01*
X77281030Y-21373126D01*
X77272524Y-21327924D01*
X77315440Y-21116000D01*
X77315440Y-19016000D01*
X77271162Y-18780683D01*
X77132090Y-18564559D01*
X76919890Y-18419569D01*
X76668000Y-18368560D01*
X75398100Y-18368560D01*
X75398100Y-17317100D01*
X75307897Y-16863620D01*
X75051022Y-16479178D01*
X75051019Y-16479176D01*
X73735922Y-15164078D01*
X73351480Y-14907203D01*
X72898000Y-14816999D01*
X72897995Y-14817000D01*
X17018000Y-14817000D01*
X16564520Y-14907203D01*
X16180078Y-15164078D01*
X16180076Y-15164081D01*
X15672078Y-15672078D01*
X15415203Y-16056520D01*
X15324999Y-16510000D01*
X15325000Y-16510005D01*
X15325000Y-18063532D01*
X15011566Y-18376966D01*
X14830561Y-18647859D01*
X14769864Y-18953000D01*
X14674998Y-18953000D01*
X14674998Y-19091400D01*
X14610755Y-19047505D01*
X14516250Y-18953000D01*
X14400690Y-18953000D01*
X14380247Y-18961468D01*
X14277000Y-18940560D01*
X13727000Y-18940560D01*
X13597411Y-18964944D01*
X13477000Y-18940560D01*
X12927000Y-18940560D01*
X12691683Y-18984838D01*
X12475559Y-19123910D01*
X12330569Y-19336110D01*
X12279560Y-19588000D01*
X12279560Y-20915560D01*
X10952000Y-20915560D01*
X10716683Y-20959838D01*
X10500559Y-21098910D01*
X10355569Y-21311110D01*
X10304560Y-21563000D01*
X10304560Y-22113000D01*
X10328944Y-22242589D01*
X10304560Y-22363000D01*
X10304560Y-22913000D01*
X10328944Y-23042589D01*
X10304560Y-23163000D01*
X10304560Y-23403000D01*
X9548037Y-23403000D01*
X9473921Y-23292078D01*
X9313000Y-23131157D01*
X9313000Y-20302844D01*
X14426919Y-15188924D01*
X14426922Y-15188922D01*
X16238843Y-13377000D01*
X73423156Y-13377000D01*
X75489076Y-15442919D01*
X75489076Y-15442919D01*
G37*
X75489076Y-15442919D02*
X75489078Y-15442922D01*
X77555000Y-17508843D01*
X77555000Y-21099157D01*
X77281030Y-21373126D01*
X77272524Y-21327924D01*
X77315440Y-21116000D01*
X77315440Y-19016000D01*
X77271162Y-18780683D01*
X77132090Y-18564559D01*
X76919890Y-18419569D01*
X76668000Y-18368560D01*
X75398100Y-18368560D01*
X75398100Y-17317100D01*
X75307897Y-16863620D01*
X75051022Y-16479178D01*
X75051019Y-16479176D01*
X73735922Y-15164078D01*
X73351480Y-14907203D01*
X72898000Y-14816999D01*
X72897995Y-14817000D01*
X17018000Y-14817000D01*
X16564520Y-14907203D01*
X16180078Y-15164078D01*
X16180076Y-15164081D01*
X15672078Y-15672078D01*
X15415203Y-16056520D01*
X15324999Y-16510000D01*
X15325000Y-16510005D01*
X15325000Y-18063532D01*
X15011566Y-18376966D01*
X14830561Y-18647859D01*
X14769864Y-18953000D01*
X14674998Y-18953000D01*
X14674998Y-19091400D01*
X14610755Y-19047505D01*
X14516250Y-18953000D01*
X14400690Y-18953000D01*
X14380247Y-18961468D01*
X14277000Y-18940560D01*
X13727000Y-18940560D01*
X13597411Y-18964944D01*
X13477000Y-18940560D01*
X12927000Y-18940560D01*
X12691683Y-18984838D01*
X12475559Y-19123910D01*
X12330569Y-19336110D01*
X12279560Y-19588000D01*
X12279560Y-20915560D01*
X10952000Y-20915560D01*
X10716683Y-20959838D01*
X10500559Y-21098910D01*
X10355569Y-21311110D01*
X10304560Y-21563000D01*
X10304560Y-22113000D01*
X10328944Y-22242589D01*
X10304560Y-22363000D01*
X10304560Y-22913000D01*
X10328944Y-23042589D01*
X10304560Y-23163000D01*
X10304560Y-23403000D01*
X9548037Y-23403000D01*
X9473921Y-23292078D01*
X9313000Y-23131157D01*
X9313000Y-20302844D01*
X14426919Y-15188924D01*
X14426922Y-15188922D01*
X16238843Y-13377000D01*
X73423156Y-13377000D01*
X75489076Y-15442919D01*
M02*
