%TF.GenerationSoftware,KiCad,Pcbnew,4.0.2+dfsg1-stable*%
%TF.CreationDate,2018-07-14T11:35:00+02:00*%
%TF.ProjectId,carte_7816,63617274655F373831362E6B69636164,rev?*%
%TF.FileFunction,Legend,Bot*%
%FSLAX46Y46*%
G04 Gerber Fmt 4.6, Leading zero omitted, Abs format (unit mm)*
G04 Created by KiCad (PCBNEW 4.0.2+dfsg1-stable) date sam. 14 juil. 2018 11:35:00 CEST*
%MOMM*%
G01*
G04 APERTURE LIST*
%ADD10C,0.100000*%
%ADD11C,0.150000*%
G04 APERTURE END LIST*
D10*
D11*
X85471000Y51562000D02*
X85471000Y2413000D01*
X2413000Y0D02*
X83058000Y0D01*
X0Y51562000D02*
X0Y2413000D01*
X83058000Y53975000D02*
X2413000Y53975000D01*
X83058000Y0D02*
G75*
G03X85471000Y2413000I0J2413000D01*
G01*
X0Y2413000D02*
G75*
G03X2413000Y0I2413000J0D01*
G01*
X2413000Y53975000D02*
G75*
G03X0Y51562000I0J-2413000D01*
G01*
X85471000Y51562000D02*
G75*
G03X83058000Y53975000I-2413000J0D01*
G01*
X12377000Y32962000D02*
X12602000Y32962000D01*
X12377000Y25712000D02*
X12702000Y25712000D01*
X19627000Y25712000D02*
X19302000Y25712000D01*
X19627000Y32962000D02*
X19302000Y32962000D01*
X12377000Y32962000D02*
X12377000Y32637000D01*
X19627000Y32962000D02*
X19627000Y32637000D01*
X19627000Y25712000D02*
X19627000Y26037000D01*
X12377000Y25712000D02*
X12377000Y26037000D01*
X12602000Y32962000D02*
X12602000Y34387000D01*
X10072667Y34519619D02*
X10072667Y34043428D01*
X10358381Y34614857D02*
X9358381Y34281524D01*
X10358381Y33948190D01*
X9358381Y33757714D02*
X9358381Y33186285D01*
X10358381Y33472000D02*
X9358381Y33472000D01*
X10358381Y32852952D02*
X9691714Y32852952D01*
X9786952Y32852952D02*
X9739333Y32805333D01*
X9691714Y32710095D01*
X9691714Y32567237D01*
X9739333Y32471999D01*
X9834571Y32424380D01*
X10358381Y32424380D01*
X9834571Y32424380D02*
X9739333Y32376761D01*
X9691714Y32281523D01*
X9691714Y32138666D01*
X9739333Y32043428D01*
X9834571Y31995809D01*
X10358381Y31995809D01*
X10310762Y31138666D02*
X10358381Y31233904D01*
X10358381Y31424381D01*
X10310762Y31519619D01*
X10215524Y31567238D01*
X9834571Y31567238D01*
X9739333Y31519619D01*
X9691714Y31424381D01*
X9691714Y31233904D01*
X9739333Y31138666D01*
X9834571Y31091047D01*
X9929810Y31091047D01*
X10025048Y31567238D01*
X9691714Y30233904D02*
X10501238Y30233904D01*
X10596476Y30281523D01*
X10644095Y30329142D01*
X10691714Y30424381D01*
X10691714Y30567238D01*
X10644095Y30662476D01*
X10310762Y30233904D02*
X10358381Y30329142D01*
X10358381Y30519619D01*
X10310762Y30614857D01*
X10263143Y30662476D01*
X10167905Y30710095D01*
X9882190Y30710095D01*
X9786952Y30662476D01*
X9739333Y30614857D01*
X9691714Y30519619D01*
X9691714Y30329142D01*
X9739333Y30233904D01*
X10358381Y29329142D02*
X9834571Y29329142D01*
X9739333Y29376761D01*
X9691714Y29471999D01*
X9691714Y29662476D01*
X9739333Y29757714D01*
X10310762Y29329142D02*
X10358381Y29424380D01*
X10358381Y29662476D01*
X10310762Y29757714D01*
X10215524Y29805333D01*
X10120286Y29805333D01*
X10025048Y29757714D01*
X9977429Y29662476D01*
X9977429Y29424380D01*
X9929810Y29329142D01*
X9358381Y28948190D02*
X9358381Y28329142D01*
X9739333Y28662476D01*
X9739333Y28519618D01*
X9786952Y28424380D01*
X9834571Y28376761D01*
X9929810Y28329142D01*
X10167905Y28329142D01*
X10263143Y28376761D01*
X10310762Y28424380D01*
X10358381Y28519618D01*
X10358381Y28805333D01*
X10310762Y28900571D01*
X10263143Y28948190D01*
X9453619Y27948190D02*
X9406000Y27900571D01*
X9358381Y27805333D01*
X9358381Y27567237D01*
X9406000Y27471999D01*
X9453619Y27424380D01*
X9548857Y27376761D01*
X9644095Y27376761D01*
X9786952Y27424380D01*
X10358381Y27995809D01*
X10358381Y27376761D01*
X9786952Y26805333D02*
X9739333Y26900571D01*
X9691714Y26948190D01*
X9596476Y26995809D01*
X9548857Y26995809D01*
X9453619Y26948190D01*
X9406000Y26900571D01*
X9358381Y26805333D01*
X9358381Y26614856D01*
X9406000Y26519618D01*
X9453619Y26471999D01*
X9548857Y26424380D01*
X9596476Y26424380D01*
X9691714Y26471999D01*
X9739333Y26519618D01*
X9786952Y26614856D01*
X9786952Y26805333D01*
X9834571Y26900571D01*
X9882190Y26948190D01*
X9977429Y26995809D01*
X10167905Y26995809D01*
X10263143Y26948190D01*
X10310762Y26900571D01*
X10358381Y26805333D01*
X10358381Y26614856D01*
X10310762Y26519618D01*
X10263143Y26471999D01*
X10167905Y26424380D01*
X9977429Y26424380D01*
X9882190Y26471999D01*
X9834571Y26519618D01*
X9786952Y26614856D01*
X10358381Y25995809D02*
X9358381Y25995809D01*
X9358381Y25614856D01*
X9406000Y25519618D01*
X9453619Y25471999D01*
X9548857Y25424380D01*
X9691714Y25424380D01*
X9786952Y25471999D01*
X9834571Y25519618D01*
X9882190Y25614856D01*
X9882190Y25995809D01*
X71619905Y22074238D02*
X71477048Y22026619D01*
X71238952Y22026619D01*
X71143714Y22074238D01*
X71096095Y22121857D01*
X71048476Y22217095D01*
X71048476Y22312333D01*
X71096095Y22407571D01*
X71143714Y22455190D01*
X71238952Y22502810D01*
X71429429Y22550429D01*
X71524667Y22598048D01*
X71572286Y22645667D01*
X71619905Y22740905D01*
X71619905Y22836143D01*
X71572286Y22931381D01*
X71524667Y22979000D01*
X71429429Y23026619D01*
X71191333Y23026619D01*
X71048476Y22979000D01*
X70048476Y22121857D02*
X70096095Y22074238D01*
X70238952Y22026619D01*
X70334190Y22026619D01*
X70477048Y22074238D01*
X70572286Y22169476D01*
X70619905Y22264714D01*
X70667524Y22455190D01*
X70667524Y22598048D01*
X70619905Y22788524D01*
X70572286Y22883762D01*
X70477048Y22979000D01*
X70334190Y23026619D01*
X70238952Y23026619D01*
X70096095Y22979000D01*
X70048476Y22931381D01*
X69096095Y22026619D02*
X69667524Y22026619D01*
X69381810Y22026619D02*
X69381810Y23026619D01*
X69477048Y22883762D01*
X69572286Y22788524D01*
X69667524Y22740905D01*
M02*
