G04 #@! TF.FileFunction,Copper,L2,Bot,Signal*
%FSLAX46Y46*%
G04 Gerber Fmt 4.6, Leading zero omitted, Abs format (unit mm)*
G04 Created by KiCad (PCBNEW 4.0.5+dfsg1-4) date Mon Apr  3 14:51:24 2017*
%MOMM*%
%LPD*%
G01*
G04 APERTURE LIST*
%ADD10C,0.100000*%
%ADD11O,2.300000X1.600000*%
%ADD12O,2.300000X1.200000*%
%ADD13R,5.000000X2.100000*%
%ADD14C,1.100000*%
%ADD15C,0.254000*%
G04 APERTURE END LIST*
D10*
D11*
X109000000Y-110000000D03*
X109000000Y-112540000D03*
X109000000Y-115080000D03*
X109000000Y-117620000D03*
X109000000Y-120160000D03*
X109000000Y-122700000D03*
X109000000Y-125240000D03*
X109000000Y-127780000D03*
X109000000Y-130320000D03*
X109000000Y-132860000D03*
X109000000Y-135400000D03*
X109000000Y-137940000D03*
X109000000Y-140480000D03*
X109000000Y-143020000D03*
X116620000Y-143020000D03*
X116620000Y-140480000D03*
X116620000Y-137940000D03*
X116620000Y-135400000D03*
D12*
X116620000Y-132860000D03*
X116620000Y-130320000D03*
D11*
X116620000Y-127780000D03*
X116620000Y-125240000D03*
X116620000Y-122700000D03*
X116620000Y-120160000D03*
X116620000Y-117620000D03*
X116620000Y-115080000D03*
X116620000Y-112540000D03*
X116620000Y-110000000D03*
D13*
X167090000Y-127660000D03*
X167090000Y-125120000D03*
X167090000Y-122580000D03*
X167090000Y-120040000D03*
X174710000Y-127660000D03*
X174710000Y-125120000D03*
X174710000Y-122580000D03*
X174710000Y-120040000D03*
X174710000Y-120040000D03*
X174710000Y-122580000D03*
X174710000Y-125120000D03*
X174710000Y-127660000D03*
X167090000Y-120040000D03*
X167090000Y-122580000D03*
X167090000Y-125120000D03*
X167090000Y-127660000D03*
D14*
X109000000Y-110000000D02*
X109000000Y-107000000D01*
X109000000Y-107000000D02*
X112000000Y-104000000D01*
X174710000Y-122580000D02*
X177420000Y-122580000D01*
X177420000Y-122580000D02*
X179000000Y-121000000D01*
X179000000Y-121000000D02*
X179000000Y-108000000D01*
X179000000Y-108000000D02*
X175000000Y-104000000D01*
X175000000Y-104000000D02*
X112000000Y-104000000D01*
X111500000Y-124500000D02*
X111500000Y-107500000D01*
X177000000Y-117750000D02*
X174710000Y-120040000D01*
X177000000Y-109000000D02*
X177000000Y-117750000D01*
X174000000Y-106000000D02*
X177000000Y-109000000D01*
X113000000Y-106000000D02*
X174000000Y-106000000D01*
X111500000Y-107500000D02*
X113000000Y-106000000D01*
X111500000Y-124500000D02*
X110760000Y-125240000D01*
X109000000Y-125240000D02*
X110760000Y-125240000D01*
X114320000Y-130320000D02*
X116620000Y-130320000D01*
X113000000Y-129000000D02*
X114320000Y-130320000D01*
X113000000Y-127480000D02*
X113000000Y-129000000D01*
X110760000Y-125240000D02*
X113000000Y-127480000D01*
X167090000Y-120040000D02*
X156040000Y-120040000D01*
X151000000Y-125080000D02*
X116780000Y-125080000D01*
X156040000Y-120040000D02*
X151000000Y-125080000D01*
X116780000Y-125080000D02*
X116620000Y-125240000D01*
X169000000Y-143000000D02*
X158000000Y-143000000D01*
X158000000Y-143000000D02*
X156000000Y-143000000D01*
X174710000Y-125120000D02*
X178120000Y-125120000D01*
X105680000Y-130320000D02*
X109000000Y-130320000D01*
X104000000Y-132000000D02*
X105680000Y-130320000D01*
X104000000Y-146000000D02*
X104000000Y-132000000D01*
X107000000Y-149000000D02*
X104000000Y-146000000D01*
X120000000Y-149000000D02*
X107000000Y-149000000D01*
X126000000Y-143000000D02*
X120000000Y-149000000D01*
X174000000Y-143000000D02*
X169000000Y-143000000D01*
X156000000Y-143000000D02*
X126000000Y-143000000D01*
X179000000Y-138000000D02*
X174000000Y-143000000D01*
X179000000Y-126000000D02*
X179000000Y-138000000D01*
X178120000Y-125120000D02*
X179000000Y-126000000D01*
X174710000Y-127660000D02*
X174710000Y-134290000D01*
X171060000Y-137940000D02*
X116620000Y-137940000D01*
X174710000Y-134290000D02*
X171060000Y-137940000D01*
X167090000Y-125120000D02*
X170880000Y-125120000D01*
X168600000Y-135400000D02*
X116620000Y-135400000D01*
X171000000Y-133000000D02*
X168600000Y-135400000D01*
X171000000Y-125240000D02*
X171000000Y-133000000D01*
X170880000Y-125120000D02*
X171000000Y-125240000D01*
X167090000Y-127660000D02*
X167090000Y-130910000D01*
X165140000Y-132860000D02*
X116620000Y-132860000D01*
X167090000Y-130910000D02*
X165140000Y-132860000D01*
D15*
G36*
X184873000Y-152873000D02*
X101127000Y-152873000D01*
X101127000Y-132000000D01*
X102814999Y-132000000D01*
X102815000Y-132000005D01*
X102815000Y-145999995D01*
X102814999Y-146000000D01*
X102905203Y-146453480D01*
X103162078Y-146837922D01*
X106162076Y-149837919D01*
X106162078Y-149837922D01*
X106546520Y-150094797D01*
X106621758Y-150109763D01*
X107000000Y-150185001D01*
X107000005Y-150185000D01*
X119999995Y-150185000D01*
X120000000Y-150185001D01*
X120453480Y-150094797D01*
X120837922Y-149837922D01*
X126490843Y-144185000D01*
X173999995Y-144185000D01*
X174000000Y-144185001D01*
X174453480Y-144094797D01*
X174837922Y-143837922D01*
X179837919Y-138837924D01*
X179837922Y-138837922D01*
X180094797Y-138453480D01*
X180109763Y-138378242D01*
X180185001Y-138000000D01*
X180185000Y-137999995D01*
X180185000Y-126000005D01*
X180185001Y-126000000D01*
X180094797Y-125546520D01*
X179974846Y-125367000D01*
X179837922Y-125162078D01*
X179837919Y-125162076D01*
X178957922Y-124282078D01*
X178573480Y-124025203D01*
X178120000Y-123934999D01*
X178119995Y-123935000D01*
X177832038Y-123935000D01*
X177814524Y-123841924D01*
X177847314Y-123680002D01*
X177873480Y-123674797D01*
X178257922Y-123417922D01*
X179837919Y-121837924D01*
X179837922Y-121837922D01*
X180094797Y-121453480D01*
X180185000Y-121000000D01*
X180185000Y-108000000D01*
X180094797Y-107546520D01*
X179837922Y-107162078D01*
X179837919Y-107162076D01*
X175837922Y-103162078D01*
X175453480Y-102905203D01*
X175000000Y-102814999D01*
X174999995Y-102815000D01*
X112000005Y-102815000D01*
X112000000Y-102814999D01*
X111621758Y-102890237D01*
X111546520Y-102905203D01*
X111162078Y-103162078D01*
X111162076Y-103162081D01*
X108162078Y-106162078D01*
X107905203Y-106546520D01*
X107814999Y-107000000D01*
X107815000Y-107000005D01*
X107815000Y-108841865D01*
X107600332Y-108985302D01*
X107289263Y-109450849D01*
X107180030Y-110000000D01*
X107289263Y-110549151D01*
X107600332Y-111014698D01*
X107982418Y-111270000D01*
X107600332Y-111525302D01*
X107289263Y-111990849D01*
X107180030Y-112540000D01*
X107289263Y-113089151D01*
X107600332Y-113554698D01*
X107982418Y-113810000D01*
X107600332Y-114065302D01*
X107289263Y-114530849D01*
X107180030Y-115080000D01*
X107289263Y-115629151D01*
X107600332Y-116094698D01*
X107982418Y-116350000D01*
X107600332Y-116605302D01*
X107289263Y-117070849D01*
X107180030Y-117620000D01*
X107289263Y-118169151D01*
X107600332Y-118634698D01*
X107982418Y-118890000D01*
X107600332Y-119145302D01*
X107289263Y-119610849D01*
X107180030Y-120160000D01*
X107289263Y-120709151D01*
X107600332Y-121174698D01*
X107982418Y-121430000D01*
X107600332Y-121685302D01*
X107289263Y-122150849D01*
X107180030Y-122700000D01*
X107289263Y-123249151D01*
X107600332Y-123714698D01*
X107982418Y-123970000D01*
X107600332Y-124225302D01*
X107289263Y-124690849D01*
X107180030Y-125240000D01*
X107289263Y-125789151D01*
X107600332Y-126254698D01*
X107978151Y-126507149D01*
X107545500Y-126855104D01*
X107275633Y-127348181D01*
X107258096Y-127430961D01*
X107380085Y-127653000D01*
X108873000Y-127653000D01*
X108873000Y-127633000D01*
X109127000Y-127633000D01*
X109127000Y-127653000D01*
X110619915Y-127653000D01*
X110741904Y-127430961D01*
X110724367Y-127348181D01*
X110454500Y-126855104D01*
X110021849Y-126507149D01*
X110144793Y-126425000D01*
X110269156Y-126425000D01*
X111815000Y-127970843D01*
X111815000Y-128999995D01*
X111814999Y-129000000D01*
X111905203Y-129453480D01*
X112162078Y-129837922D01*
X113482076Y-131157919D01*
X113482078Y-131157922D01*
X113866520Y-131414797D01*
X114320000Y-131505001D01*
X114320005Y-131505000D01*
X115783664Y-131505000D01*
X116035030Y-131555000D01*
X117204970Y-131555000D01*
X117677584Y-131460991D01*
X118078247Y-131193277D01*
X118345961Y-130792614D01*
X118439970Y-130320000D01*
X118345961Y-129847386D01*
X118078247Y-129446723D01*
X117677584Y-129179009D01*
X117431747Y-129130109D01*
X117554121Y-129105767D01*
X118019668Y-128794698D01*
X118330737Y-128329151D01*
X118439970Y-127780000D01*
X118330737Y-127230849D01*
X118019668Y-126765302D01*
X117641849Y-126512851D01*
X118074500Y-126164896D01*
X118344367Y-125671819D01*
X118361904Y-125589039D01*
X118239915Y-125367000D01*
X116747000Y-125367000D01*
X116747000Y-125387000D01*
X116493000Y-125387000D01*
X116493000Y-125367000D01*
X115000085Y-125367000D01*
X114878096Y-125589039D01*
X114895633Y-125671819D01*
X115165500Y-126164896D01*
X115598151Y-126512851D01*
X115220332Y-126765302D01*
X114909263Y-127230849D01*
X114800030Y-127780000D01*
X114909263Y-128329151D01*
X115220332Y-128794698D01*
X115685879Y-129105767D01*
X115808253Y-129130109D01*
X115783664Y-129135000D01*
X114810843Y-129135000D01*
X114185000Y-128509156D01*
X114185000Y-127480000D01*
X114094797Y-127026520D01*
X113837922Y-126642078D01*
X113837919Y-126642076D01*
X112416366Y-125220522D01*
X112594797Y-124953480D01*
X112685001Y-124500000D01*
X112685000Y-124499995D01*
X112685000Y-110000000D01*
X114800030Y-110000000D01*
X114909263Y-110549151D01*
X115220332Y-111014698D01*
X115602418Y-111270000D01*
X115220332Y-111525302D01*
X114909263Y-111990849D01*
X114800030Y-112540000D01*
X114909263Y-113089151D01*
X115220332Y-113554698D01*
X115602418Y-113810000D01*
X115220332Y-114065302D01*
X114909263Y-114530849D01*
X114800030Y-115080000D01*
X114909263Y-115629151D01*
X115220332Y-116094698D01*
X115602418Y-116350000D01*
X115220332Y-116605302D01*
X114909263Y-117070849D01*
X114800030Y-117620000D01*
X114909263Y-118169151D01*
X115220332Y-118634698D01*
X115602418Y-118890000D01*
X115220332Y-119145302D01*
X114909263Y-119610849D01*
X114800030Y-120160000D01*
X114909263Y-120709151D01*
X115220332Y-121174698D01*
X115602418Y-121430000D01*
X115220332Y-121685302D01*
X114909263Y-122150849D01*
X114800030Y-122700000D01*
X114909263Y-123249151D01*
X115220332Y-123714698D01*
X115598151Y-123967149D01*
X115165500Y-124315104D01*
X114895633Y-124808181D01*
X114878096Y-124890961D01*
X115000085Y-125113000D01*
X116493000Y-125113000D01*
X116493000Y-125093000D01*
X116747000Y-125093000D01*
X116747000Y-125113000D01*
X118239915Y-125113000D01*
X118361904Y-124890961D01*
X118344367Y-124808181D01*
X118074500Y-124315104D01*
X117641849Y-123967149D01*
X118019668Y-123714698D01*
X118330737Y-123249151D01*
X118439970Y-122700000D01*
X118330737Y-122150849D01*
X118019668Y-121685302D01*
X117637582Y-121430000D01*
X118019668Y-121174698D01*
X118330737Y-120709151D01*
X118439970Y-120160000D01*
X118330737Y-119610849D01*
X118019668Y-119145302D01*
X117637582Y-118890000D01*
X117676957Y-118863690D01*
X163955000Y-118863690D01*
X163955000Y-119754250D01*
X164113750Y-119913000D01*
X166963000Y-119913000D01*
X166963000Y-118513750D01*
X167217000Y-118513750D01*
X167217000Y-119913000D01*
X170066250Y-119913000D01*
X170225000Y-119754250D01*
X170225000Y-118863690D01*
X170128327Y-118630301D01*
X169949698Y-118451673D01*
X169716309Y-118355000D01*
X167375750Y-118355000D01*
X167217000Y-118513750D01*
X166963000Y-118513750D01*
X166804250Y-118355000D01*
X164463691Y-118355000D01*
X164230302Y-118451673D01*
X164051673Y-118630301D01*
X163955000Y-118863690D01*
X117676957Y-118863690D01*
X118019668Y-118634698D01*
X118330737Y-118169151D01*
X118439970Y-117620000D01*
X118330737Y-117070849D01*
X118019668Y-116605302D01*
X117637582Y-116350000D01*
X118019668Y-116094698D01*
X118330737Y-115629151D01*
X118439970Y-115080000D01*
X118330737Y-114530849D01*
X118019668Y-114065302D01*
X117637582Y-113810000D01*
X118019668Y-113554698D01*
X118330737Y-113089151D01*
X118439970Y-112540000D01*
X118330737Y-111990849D01*
X118019668Y-111525302D01*
X117637582Y-111270000D01*
X118019668Y-111014698D01*
X118330737Y-110549151D01*
X118439970Y-110000000D01*
X118330737Y-109450849D01*
X118019668Y-108985302D01*
X117554121Y-108674233D01*
X117004970Y-108565000D01*
X116235030Y-108565000D01*
X115685879Y-108674233D01*
X115220332Y-108985302D01*
X114909263Y-109450849D01*
X114800030Y-110000000D01*
X112685000Y-110000000D01*
X112685000Y-107990844D01*
X113490843Y-107185000D01*
X173509156Y-107185000D01*
X175815000Y-109490843D01*
X175815000Y-117259157D01*
X174731596Y-118342560D01*
X172210000Y-118342560D01*
X171974683Y-118386838D01*
X171758559Y-118525910D01*
X171613569Y-118738110D01*
X171562560Y-118990000D01*
X171562560Y-121090000D01*
X171605476Y-121318076D01*
X171562560Y-121530000D01*
X171562560Y-123630000D01*
X171605476Y-123858076D01*
X171562560Y-124070000D01*
X171562560Y-124178269D01*
X171333480Y-124025203D01*
X170880000Y-123934999D01*
X170879995Y-123935000D01*
X170212038Y-123935000D01*
X170194524Y-123841924D01*
X170237440Y-123630000D01*
X170237440Y-121530000D01*
X170193162Y-121294683D01*
X170192782Y-121294092D01*
X170225000Y-121216310D01*
X170225000Y-120325750D01*
X170066250Y-120167000D01*
X167217000Y-120167000D01*
X167217000Y-120187000D01*
X166963000Y-120187000D01*
X166963000Y-120167000D01*
X164113750Y-120167000D01*
X163955000Y-120325750D01*
X163955000Y-121216310D01*
X163989310Y-121299142D01*
X163942560Y-121530000D01*
X163942560Y-123630000D01*
X163985476Y-123858076D01*
X163942560Y-124070000D01*
X163942560Y-126170000D01*
X163985476Y-126398076D01*
X163942560Y-126610000D01*
X163942560Y-128710000D01*
X163986838Y-128945317D01*
X164125910Y-129161441D01*
X164338110Y-129306431D01*
X164590000Y-129357440D01*
X165905000Y-129357440D01*
X165905000Y-130419157D01*
X164649156Y-131675000D01*
X117456336Y-131675000D01*
X117204970Y-131625000D01*
X116035030Y-131625000D01*
X115562416Y-131719009D01*
X115161753Y-131986723D01*
X114894039Y-132387386D01*
X114800030Y-132860000D01*
X114894039Y-133332614D01*
X115161753Y-133733277D01*
X115562416Y-134000991D01*
X115808253Y-134049891D01*
X115685879Y-134074233D01*
X115220332Y-134385302D01*
X114909263Y-134850849D01*
X114800030Y-135400000D01*
X114909263Y-135949151D01*
X115220332Y-136414698D01*
X115602418Y-136670000D01*
X115220332Y-136925302D01*
X114909263Y-137390849D01*
X114800030Y-137940000D01*
X114909263Y-138489151D01*
X115220332Y-138954698D01*
X115602418Y-139210000D01*
X115220332Y-139465302D01*
X114909263Y-139930849D01*
X114800030Y-140480000D01*
X114909263Y-141029151D01*
X115220332Y-141494698D01*
X115602418Y-141750000D01*
X115220332Y-142005302D01*
X114909263Y-142470849D01*
X114800030Y-143020000D01*
X114909263Y-143569151D01*
X115220332Y-144034698D01*
X115685879Y-144345767D01*
X116235030Y-144455000D01*
X117004970Y-144455000D01*
X117554121Y-144345767D01*
X118019668Y-144034698D01*
X118330737Y-143569151D01*
X118439970Y-143020000D01*
X118330737Y-142470849D01*
X118019668Y-142005302D01*
X117637582Y-141750000D01*
X118019668Y-141494698D01*
X118330737Y-141029151D01*
X118439970Y-140480000D01*
X118330737Y-139930849D01*
X118019668Y-139465302D01*
X117637582Y-139210000D01*
X117764793Y-139125000D01*
X171059995Y-139125000D01*
X171060000Y-139125001D01*
X171513480Y-139034797D01*
X171897922Y-138777922D01*
X175547919Y-135127924D01*
X175547922Y-135127922D01*
X175804797Y-134743480D01*
X175804798Y-134743479D01*
X175895001Y-134290000D01*
X175895000Y-134289995D01*
X175895000Y-129357440D01*
X177210000Y-129357440D01*
X177445317Y-129313162D01*
X177661441Y-129174090D01*
X177806431Y-128961890D01*
X177815000Y-128919575D01*
X177815000Y-137509157D01*
X173509156Y-141815000D01*
X126000000Y-141815000D01*
X125546520Y-141905203D01*
X125162078Y-142162078D01*
X125162076Y-142162081D01*
X119509156Y-147815000D01*
X107490843Y-147815000D01*
X105185000Y-145509156D01*
X105185000Y-132490844D01*
X106170843Y-131505000D01*
X107855207Y-131505000D01*
X107982418Y-131590000D01*
X107600332Y-131845302D01*
X107289263Y-132310849D01*
X107180030Y-132860000D01*
X107289263Y-133409151D01*
X107600332Y-133874698D01*
X107982418Y-134130000D01*
X107600332Y-134385302D01*
X107289263Y-134850849D01*
X107180030Y-135400000D01*
X107289263Y-135949151D01*
X107600332Y-136414698D01*
X107982418Y-136670000D01*
X107600332Y-136925302D01*
X107289263Y-137390849D01*
X107180030Y-137940000D01*
X107289263Y-138489151D01*
X107600332Y-138954698D01*
X107982418Y-139210000D01*
X107600332Y-139465302D01*
X107289263Y-139930849D01*
X107180030Y-140480000D01*
X107289263Y-141029151D01*
X107600332Y-141494698D01*
X107982418Y-141750000D01*
X107600332Y-142005302D01*
X107289263Y-142470849D01*
X107180030Y-143020000D01*
X107289263Y-143569151D01*
X107600332Y-144034698D01*
X108065879Y-144345767D01*
X108615030Y-144455000D01*
X109384970Y-144455000D01*
X109934121Y-144345767D01*
X110399668Y-144034698D01*
X110710737Y-143569151D01*
X110819970Y-143020000D01*
X110710737Y-142470849D01*
X110399668Y-142005302D01*
X110017582Y-141750000D01*
X110399668Y-141494698D01*
X110710737Y-141029151D01*
X110819970Y-140480000D01*
X110710737Y-139930849D01*
X110399668Y-139465302D01*
X110017582Y-139210000D01*
X110399668Y-138954698D01*
X110710737Y-138489151D01*
X110819970Y-137940000D01*
X110710737Y-137390849D01*
X110399668Y-136925302D01*
X110017582Y-136670000D01*
X110399668Y-136414698D01*
X110710737Y-135949151D01*
X110819970Y-135400000D01*
X110710737Y-134850849D01*
X110399668Y-134385302D01*
X110017582Y-134130000D01*
X110399668Y-133874698D01*
X110710737Y-133409151D01*
X110819970Y-132860000D01*
X110710737Y-132310849D01*
X110399668Y-131845302D01*
X110017582Y-131590000D01*
X110399668Y-131334698D01*
X110710737Y-130869151D01*
X110819970Y-130320000D01*
X110710737Y-129770849D01*
X110399668Y-129305302D01*
X110021849Y-129052851D01*
X110454500Y-128704896D01*
X110724367Y-128211819D01*
X110741904Y-128129039D01*
X110619915Y-127907000D01*
X109127000Y-127907000D01*
X109127000Y-127927000D01*
X108873000Y-127927000D01*
X108873000Y-127907000D01*
X107380085Y-127907000D01*
X107258096Y-128129039D01*
X107275633Y-128211819D01*
X107545500Y-128704896D01*
X107978151Y-129052851D01*
X107855207Y-129135000D01*
X105680005Y-129135000D01*
X105680000Y-129134999D01*
X105301758Y-129210237D01*
X105226520Y-129225203D01*
X104842078Y-129482078D01*
X104842076Y-129482081D01*
X103162078Y-131162078D01*
X102905203Y-131546520D01*
X102814999Y-132000000D01*
X101127000Y-132000000D01*
X101127000Y-101127000D01*
X184873000Y-101127000D01*
X184873000Y-152873000D01*
X184873000Y-152873000D01*
G37*
X184873000Y-152873000D02*
X101127000Y-152873000D01*
X101127000Y-132000000D01*
X102814999Y-132000000D01*
X102815000Y-132000005D01*
X102815000Y-145999995D01*
X102814999Y-146000000D01*
X102905203Y-146453480D01*
X103162078Y-146837922D01*
X106162076Y-149837919D01*
X106162078Y-149837922D01*
X106546520Y-150094797D01*
X106621758Y-150109763D01*
X107000000Y-150185001D01*
X107000005Y-150185000D01*
X119999995Y-150185000D01*
X120000000Y-150185001D01*
X120453480Y-150094797D01*
X120837922Y-149837922D01*
X126490843Y-144185000D01*
X173999995Y-144185000D01*
X174000000Y-144185001D01*
X174453480Y-144094797D01*
X174837922Y-143837922D01*
X179837919Y-138837924D01*
X179837922Y-138837922D01*
X180094797Y-138453480D01*
X180109763Y-138378242D01*
X180185001Y-138000000D01*
X180185000Y-137999995D01*
X180185000Y-126000005D01*
X180185001Y-126000000D01*
X180094797Y-125546520D01*
X179974846Y-125367000D01*
X179837922Y-125162078D01*
X179837919Y-125162076D01*
X178957922Y-124282078D01*
X178573480Y-124025203D01*
X178120000Y-123934999D01*
X178119995Y-123935000D01*
X177832038Y-123935000D01*
X177814524Y-123841924D01*
X177847314Y-123680002D01*
X177873480Y-123674797D01*
X178257922Y-123417922D01*
X179837919Y-121837924D01*
X179837922Y-121837922D01*
X180094797Y-121453480D01*
X180185000Y-121000000D01*
X180185000Y-108000000D01*
X180094797Y-107546520D01*
X179837922Y-107162078D01*
X179837919Y-107162076D01*
X175837922Y-103162078D01*
X175453480Y-102905203D01*
X175000000Y-102814999D01*
X174999995Y-102815000D01*
X112000005Y-102815000D01*
X112000000Y-102814999D01*
X111621758Y-102890237D01*
X111546520Y-102905203D01*
X111162078Y-103162078D01*
X111162076Y-103162081D01*
X108162078Y-106162078D01*
X107905203Y-106546520D01*
X107814999Y-107000000D01*
X107815000Y-107000005D01*
X107815000Y-108841865D01*
X107600332Y-108985302D01*
X107289263Y-109450849D01*
X107180030Y-110000000D01*
X107289263Y-110549151D01*
X107600332Y-111014698D01*
X107982418Y-111270000D01*
X107600332Y-111525302D01*
X107289263Y-111990849D01*
X107180030Y-112540000D01*
X107289263Y-113089151D01*
X107600332Y-113554698D01*
X107982418Y-113810000D01*
X107600332Y-114065302D01*
X107289263Y-114530849D01*
X107180030Y-115080000D01*
X107289263Y-115629151D01*
X107600332Y-116094698D01*
X107982418Y-116350000D01*
X107600332Y-116605302D01*
X107289263Y-117070849D01*
X107180030Y-117620000D01*
X107289263Y-118169151D01*
X107600332Y-118634698D01*
X107982418Y-118890000D01*
X107600332Y-119145302D01*
X107289263Y-119610849D01*
X107180030Y-120160000D01*
X107289263Y-120709151D01*
X107600332Y-121174698D01*
X107982418Y-121430000D01*
X107600332Y-121685302D01*
X107289263Y-122150849D01*
X107180030Y-122700000D01*
X107289263Y-123249151D01*
X107600332Y-123714698D01*
X107982418Y-123970000D01*
X107600332Y-124225302D01*
X107289263Y-124690849D01*
X107180030Y-125240000D01*
X107289263Y-125789151D01*
X107600332Y-126254698D01*
X107978151Y-126507149D01*
X107545500Y-126855104D01*
X107275633Y-127348181D01*
X107258096Y-127430961D01*
X107380085Y-127653000D01*
X108873000Y-127653000D01*
X108873000Y-127633000D01*
X109127000Y-127633000D01*
X109127000Y-127653000D01*
X110619915Y-127653000D01*
X110741904Y-127430961D01*
X110724367Y-127348181D01*
X110454500Y-126855104D01*
X110021849Y-126507149D01*
X110144793Y-126425000D01*
X110269156Y-126425000D01*
X111815000Y-127970843D01*
X111815000Y-128999995D01*
X111814999Y-129000000D01*
X111905203Y-129453480D01*
X112162078Y-129837922D01*
X113482076Y-131157919D01*
X113482078Y-131157922D01*
X113866520Y-131414797D01*
X114320000Y-131505001D01*
X114320005Y-131505000D01*
X115783664Y-131505000D01*
X116035030Y-131555000D01*
X117204970Y-131555000D01*
X117677584Y-131460991D01*
X118078247Y-131193277D01*
X118345961Y-130792614D01*
X118439970Y-130320000D01*
X118345961Y-129847386D01*
X118078247Y-129446723D01*
X117677584Y-129179009D01*
X117431747Y-129130109D01*
X117554121Y-129105767D01*
X118019668Y-128794698D01*
X118330737Y-128329151D01*
X118439970Y-127780000D01*
X118330737Y-127230849D01*
X118019668Y-126765302D01*
X117641849Y-126512851D01*
X118074500Y-126164896D01*
X118344367Y-125671819D01*
X118361904Y-125589039D01*
X118239915Y-125367000D01*
X116747000Y-125367000D01*
X116747000Y-125387000D01*
X116493000Y-125387000D01*
X116493000Y-125367000D01*
X115000085Y-125367000D01*
X114878096Y-125589039D01*
X114895633Y-125671819D01*
X115165500Y-126164896D01*
X115598151Y-126512851D01*
X115220332Y-126765302D01*
X114909263Y-127230849D01*
X114800030Y-127780000D01*
X114909263Y-128329151D01*
X115220332Y-128794698D01*
X115685879Y-129105767D01*
X115808253Y-129130109D01*
X115783664Y-129135000D01*
X114810843Y-129135000D01*
X114185000Y-128509156D01*
X114185000Y-127480000D01*
X114094797Y-127026520D01*
X113837922Y-126642078D01*
X113837919Y-126642076D01*
X112416366Y-125220522D01*
X112594797Y-124953480D01*
X112685001Y-124500000D01*
X112685000Y-124499995D01*
X112685000Y-110000000D01*
X114800030Y-110000000D01*
X114909263Y-110549151D01*
X115220332Y-111014698D01*
X115602418Y-111270000D01*
X115220332Y-111525302D01*
X114909263Y-111990849D01*
X114800030Y-112540000D01*
X114909263Y-113089151D01*
X115220332Y-113554698D01*
X115602418Y-113810000D01*
X115220332Y-114065302D01*
X114909263Y-114530849D01*
X114800030Y-115080000D01*
X114909263Y-115629151D01*
X115220332Y-116094698D01*
X115602418Y-116350000D01*
X115220332Y-116605302D01*
X114909263Y-117070849D01*
X114800030Y-117620000D01*
X114909263Y-118169151D01*
X115220332Y-118634698D01*
X115602418Y-118890000D01*
X115220332Y-119145302D01*
X114909263Y-119610849D01*
X114800030Y-120160000D01*
X114909263Y-120709151D01*
X115220332Y-121174698D01*
X115602418Y-121430000D01*
X115220332Y-121685302D01*
X114909263Y-122150849D01*
X114800030Y-122700000D01*
X114909263Y-123249151D01*
X115220332Y-123714698D01*
X115598151Y-123967149D01*
X115165500Y-124315104D01*
X114895633Y-124808181D01*
X114878096Y-124890961D01*
X115000085Y-125113000D01*
X116493000Y-125113000D01*
X116493000Y-125093000D01*
X116747000Y-125093000D01*
X116747000Y-125113000D01*
X118239915Y-125113000D01*
X118361904Y-124890961D01*
X118344367Y-124808181D01*
X118074500Y-124315104D01*
X117641849Y-123967149D01*
X118019668Y-123714698D01*
X118330737Y-123249151D01*
X118439970Y-122700000D01*
X118330737Y-122150849D01*
X118019668Y-121685302D01*
X117637582Y-121430000D01*
X118019668Y-121174698D01*
X118330737Y-120709151D01*
X118439970Y-120160000D01*
X118330737Y-119610849D01*
X118019668Y-119145302D01*
X117637582Y-118890000D01*
X117676957Y-118863690D01*
X163955000Y-118863690D01*
X163955000Y-119754250D01*
X164113750Y-119913000D01*
X166963000Y-119913000D01*
X166963000Y-118513750D01*
X167217000Y-118513750D01*
X167217000Y-119913000D01*
X170066250Y-119913000D01*
X170225000Y-119754250D01*
X170225000Y-118863690D01*
X170128327Y-118630301D01*
X169949698Y-118451673D01*
X169716309Y-118355000D01*
X167375750Y-118355000D01*
X167217000Y-118513750D01*
X166963000Y-118513750D01*
X166804250Y-118355000D01*
X164463691Y-118355000D01*
X164230302Y-118451673D01*
X164051673Y-118630301D01*
X163955000Y-118863690D01*
X117676957Y-118863690D01*
X118019668Y-118634698D01*
X118330737Y-118169151D01*
X118439970Y-117620000D01*
X118330737Y-117070849D01*
X118019668Y-116605302D01*
X117637582Y-116350000D01*
X118019668Y-116094698D01*
X118330737Y-115629151D01*
X118439970Y-115080000D01*
X118330737Y-114530849D01*
X118019668Y-114065302D01*
X117637582Y-113810000D01*
X118019668Y-113554698D01*
X118330737Y-113089151D01*
X118439970Y-112540000D01*
X118330737Y-111990849D01*
X118019668Y-111525302D01*
X117637582Y-111270000D01*
X118019668Y-111014698D01*
X118330737Y-110549151D01*
X118439970Y-110000000D01*
X118330737Y-109450849D01*
X118019668Y-108985302D01*
X117554121Y-108674233D01*
X117004970Y-108565000D01*
X116235030Y-108565000D01*
X115685879Y-108674233D01*
X115220332Y-108985302D01*
X114909263Y-109450849D01*
X114800030Y-110000000D01*
X112685000Y-110000000D01*
X112685000Y-107990844D01*
X113490843Y-107185000D01*
X173509156Y-107185000D01*
X175815000Y-109490843D01*
X175815000Y-117259157D01*
X174731596Y-118342560D01*
X172210000Y-118342560D01*
X171974683Y-118386838D01*
X171758559Y-118525910D01*
X171613569Y-118738110D01*
X171562560Y-118990000D01*
X171562560Y-121090000D01*
X171605476Y-121318076D01*
X171562560Y-121530000D01*
X171562560Y-123630000D01*
X171605476Y-123858076D01*
X171562560Y-124070000D01*
X171562560Y-124178269D01*
X171333480Y-124025203D01*
X170880000Y-123934999D01*
X170879995Y-123935000D01*
X170212038Y-123935000D01*
X170194524Y-123841924D01*
X170237440Y-123630000D01*
X170237440Y-121530000D01*
X170193162Y-121294683D01*
X170192782Y-121294092D01*
X170225000Y-121216310D01*
X170225000Y-120325750D01*
X170066250Y-120167000D01*
X167217000Y-120167000D01*
X167217000Y-120187000D01*
X166963000Y-120187000D01*
X166963000Y-120167000D01*
X164113750Y-120167000D01*
X163955000Y-120325750D01*
X163955000Y-121216310D01*
X163989310Y-121299142D01*
X163942560Y-121530000D01*
X163942560Y-123630000D01*
X163985476Y-123858076D01*
X163942560Y-124070000D01*
X163942560Y-126170000D01*
X163985476Y-126398076D01*
X163942560Y-126610000D01*
X163942560Y-128710000D01*
X163986838Y-128945317D01*
X164125910Y-129161441D01*
X164338110Y-129306431D01*
X164590000Y-129357440D01*
X165905000Y-129357440D01*
X165905000Y-130419157D01*
X164649156Y-131675000D01*
X117456336Y-131675000D01*
X117204970Y-131625000D01*
X116035030Y-131625000D01*
X115562416Y-131719009D01*
X115161753Y-131986723D01*
X114894039Y-132387386D01*
X114800030Y-132860000D01*
X114894039Y-133332614D01*
X115161753Y-133733277D01*
X115562416Y-134000991D01*
X115808253Y-134049891D01*
X115685879Y-134074233D01*
X115220332Y-134385302D01*
X114909263Y-134850849D01*
X114800030Y-135400000D01*
X114909263Y-135949151D01*
X115220332Y-136414698D01*
X115602418Y-136670000D01*
X115220332Y-136925302D01*
X114909263Y-137390849D01*
X114800030Y-137940000D01*
X114909263Y-138489151D01*
X115220332Y-138954698D01*
X115602418Y-139210000D01*
X115220332Y-139465302D01*
X114909263Y-139930849D01*
X114800030Y-140480000D01*
X114909263Y-141029151D01*
X115220332Y-141494698D01*
X115602418Y-141750000D01*
X115220332Y-142005302D01*
X114909263Y-142470849D01*
X114800030Y-143020000D01*
X114909263Y-143569151D01*
X115220332Y-144034698D01*
X115685879Y-144345767D01*
X116235030Y-144455000D01*
X117004970Y-144455000D01*
X117554121Y-144345767D01*
X118019668Y-144034698D01*
X118330737Y-143569151D01*
X118439970Y-143020000D01*
X118330737Y-142470849D01*
X118019668Y-142005302D01*
X117637582Y-141750000D01*
X118019668Y-141494698D01*
X118330737Y-141029151D01*
X118439970Y-140480000D01*
X118330737Y-139930849D01*
X118019668Y-139465302D01*
X117637582Y-139210000D01*
X117764793Y-139125000D01*
X171059995Y-139125000D01*
X171060000Y-139125001D01*
X171513480Y-139034797D01*
X171897922Y-138777922D01*
X175547919Y-135127924D01*
X175547922Y-135127922D01*
X175804797Y-134743480D01*
X175804798Y-134743479D01*
X175895001Y-134290000D01*
X175895000Y-134289995D01*
X175895000Y-129357440D01*
X177210000Y-129357440D01*
X177445317Y-129313162D01*
X177661441Y-129174090D01*
X177806431Y-128961890D01*
X177815000Y-128919575D01*
X177815000Y-137509157D01*
X173509156Y-141815000D01*
X126000000Y-141815000D01*
X125546520Y-141905203D01*
X125162078Y-142162078D01*
X125162076Y-142162081D01*
X119509156Y-147815000D01*
X107490843Y-147815000D01*
X105185000Y-145509156D01*
X105185000Y-132490844D01*
X106170843Y-131505000D01*
X107855207Y-131505000D01*
X107982418Y-131590000D01*
X107600332Y-131845302D01*
X107289263Y-132310849D01*
X107180030Y-132860000D01*
X107289263Y-133409151D01*
X107600332Y-133874698D01*
X107982418Y-134130000D01*
X107600332Y-134385302D01*
X107289263Y-134850849D01*
X107180030Y-135400000D01*
X107289263Y-135949151D01*
X107600332Y-136414698D01*
X107982418Y-136670000D01*
X107600332Y-136925302D01*
X107289263Y-137390849D01*
X107180030Y-137940000D01*
X107289263Y-138489151D01*
X107600332Y-138954698D01*
X107982418Y-139210000D01*
X107600332Y-139465302D01*
X107289263Y-139930849D01*
X107180030Y-140480000D01*
X107289263Y-141029151D01*
X107600332Y-141494698D01*
X107982418Y-141750000D01*
X107600332Y-142005302D01*
X107289263Y-142470849D01*
X107180030Y-143020000D01*
X107289263Y-143569151D01*
X107600332Y-144034698D01*
X108065879Y-144345767D01*
X108615030Y-144455000D01*
X109384970Y-144455000D01*
X109934121Y-144345767D01*
X110399668Y-144034698D01*
X110710737Y-143569151D01*
X110819970Y-143020000D01*
X110710737Y-142470849D01*
X110399668Y-142005302D01*
X110017582Y-141750000D01*
X110399668Y-141494698D01*
X110710737Y-141029151D01*
X110819970Y-140480000D01*
X110710737Y-139930849D01*
X110399668Y-139465302D01*
X110017582Y-139210000D01*
X110399668Y-138954698D01*
X110710737Y-138489151D01*
X110819970Y-137940000D01*
X110710737Y-137390849D01*
X110399668Y-136925302D01*
X110017582Y-136670000D01*
X110399668Y-136414698D01*
X110710737Y-135949151D01*
X110819970Y-135400000D01*
X110710737Y-134850849D01*
X110399668Y-134385302D01*
X110017582Y-134130000D01*
X110399668Y-133874698D01*
X110710737Y-133409151D01*
X110819970Y-132860000D01*
X110710737Y-132310849D01*
X110399668Y-131845302D01*
X110017582Y-131590000D01*
X110399668Y-131334698D01*
X110710737Y-130869151D01*
X110819970Y-130320000D01*
X110710737Y-129770849D01*
X110399668Y-129305302D01*
X110021849Y-129052851D01*
X110454500Y-128704896D01*
X110724367Y-128211819D01*
X110741904Y-128129039D01*
X110619915Y-127907000D01*
X109127000Y-127907000D01*
X109127000Y-127927000D01*
X108873000Y-127927000D01*
X108873000Y-127907000D01*
X107380085Y-127907000D01*
X107258096Y-128129039D01*
X107275633Y-128211819D01*
X107545500Y-128704896D01*
X107978151Y-129052851D01*
X107855207Y-129135000D01*
X105680005Y-129135000D01*
X105680000Y-129134999D01*
X105301758Y-129210237D01*
X105226520Y-129225203D01*
X104842078Y-129482078D01*
X104842076Y-129482081D01*
X103162078Y-131162078D01*
X102905203Y-131546520D01*
X102814999Y-132000000D01*
X101127000Y-132000000D01*
X101127000Y-101127000D01*
X184873000Y-101127000D01*
X184873000Y-152873000D01*
M02*
