%TF.GenerationSoftware,KiCad,Pcbnew,4.0.2+dfsg1-stable*%
%TF.CreationDate,2018-05-09T16:15:41+02:00*%
%TF.ProjectId,carte_7816,63617274655F373831362E6B69636164,rev?*%
%TF.FileFunction,Legend,Bot*%
%FSLAX46Y46*%
G04 Gerber Fmt 4.6, Leading zero omitted, Abs format (unit mm)*
G04 Created by KiCad (PCBNEW 4.0.2+dfsg1-stable) date mer. 09 mai 2018 16:15:41 CEST*
%MOMM*%
G01*
G04 APERTURE LIST*
%ADD10C,0.100000*%
%ADD11C,0.150000*%
G04 APERTURE END LIST*
D10*
D11*
X85471000Y51562000D02*
X85471000Y2413000D01*
X2413000Y0D02*
X83058000Y0D01*
X0Y51562000D02*
X0Y2413000D01*
X83058000Y53975000D02*
X2413000Y53975000D01*
X83058000Y0D02*
G75*
G03X85471000Y2413000I0J2413000D01*
G01*
X0Y2413000D02*
G75*
G03X2413000Y0I2413000J0D01*
G01*
X2413000Y53975000D02*
G75*
G03X0Y51562000I0J-2413000D01*
G01*
X85471000Y51562000D02*
G75*
G03X83058000Y53975000I-2413000J0D01*
G01*
X12377000Y32962000D02*
X12602000Y32962000D01*
X12377000Y25712000D02*
X12702000Y25712000D01*
X19627000Y25712000D02*
X19302000Y25712000D01*
X19627000Y32962000D02*
X19302000Y32962000D01*
X12377000Y32962000D02*
X12377000Y32637000D01*
X19627000Y32962000D02*
X19627000Y32637000D01*
X19627000Y25712000D02*
X19627000Y26037000D01*
X12377000Y25712000D02*
X12377000Y26037000D01*
X12602000Y32962000D02*
X12602000Y34387000D01*
X10404381Y30313190D02*
X9404381Y30313190D01*
X10309143Y29265571D02*
X10356762Y29313190D01*
X10404381Y29456047D01*
X10404381Y29551285D01*
X10356762Y29694143D01*
X10261524Y29789381D01*
X10166286Y29837000D01*
X9975810Y29884619D01*
X9832952Y29884619D01*
X9642476Y29837000D01*
X9547238Y29789381D01*
X9452000Y29694143D01*
X9404381Y29551285D01*
X9404381Y29456047D01*
X9452000Y29313190D01*
X9499619Y29265571D01*
X10404381Y28313190D02*
X10404381Y28884619D01*
X10404381Y28598905D02*
X9404381Y28598905D01*
X9547238Y28694143D01*
X9642476Y28789381D01*
X9690095Y28884619D01*
M02*
