%TF.GenerationSoftware,KiCad,Pcbnew,4.0.2+dfsg1-stable*%
%TF.CreationDate,2018-05-09T16:15:41+02:00*%
%TF.ProjectId,carte_7816,63617274655F373831362E6B69636164,rev?*%
%TF.FileFunction,Legend,Top*%
%FSLAX46Y46*%
G04 Gerber Fmt 4.6, Leading zero omitted, Abs format (unit mm)*
G04 Created by KiCad (PCBNEW 4.0.2+dfsg1-stable) date mer. 09 mai 2018 16:15:41 CEST*
%MOMM*%
G01*
G04 APERTURE LIST*
%ADD10C,0.100000*%
%ADD11C,0.150000*%
G04 APERTURE END LIST*
D10*
D11*
X85471000Y51562000D02*
X85471000Y2413000D01*
X2413000Y0D02*
X83058000Y0D01*
X0Y51562000D02*
X0Y2413000D01*
X83058000Y53975000D02*
X2413000Y53975000D01*
X83058000Y0D02*
G75*
G03X85471000Y2413000I0J2413000D01*
G01*
X0Y2413000D02*
G75*
G03X2413000Y0I2413000J0D01*
G01*
X2413000Y53975000D02*
G75*
G03X0Y51562000I0J-2413000D01*
G01*
X85471000Y51562000D02*
G75*
G03X83058000Y53975000I-2413000J0D01*
G01*
X28448000Y6383020D02*
X28448000Y883920D01*
X28448000Y26382980D02*
X28448000Y31882080D01*
X28448000Y26382980D02*
X25148540Y26382980D01*
X25148540Y26382980D02*
X25148540Y6383020D01*
X25148540Y6383020D02*
X31747460Y6383020D01*
X31747460Y6383020D02*
X31747460Y26382980D01*
X31747460Y26382980D02*
X28448000Y26382980D01*
X24892000Y2319020D02*
X24892000Y-3180080D01*
X24892000Y22318980D02*
X24892000Y27818080D01*
X24892000Y22318980D02*
X21592540Y22318980D01*
X21592540Y22318980D02*
X21592540Y2319020D01*
X21592540Y2319020D02*
X28191460Y2319020D01*
X28191460Y2319020D02*
X28191460Y22318980D01*
X28191460Y22318980D02*
X24892000Y22318980D01*
X79248000Y36449000D02*
X76708000Y36449000D01*
X79248000Y23749000D02*
X79248000Y36449000D01*
X61468000Y23749000D02*
X79248000Y23749000D01*
X61468000Y36449000D02*
X61468000Y23749000D01*
X76708000Y36449000D02*
X61468000Y36449000D01*
X76708000Y36449000D02*
X61468000Y36449000D01*
X61468000Y36449000D02*
X61468000Y23749000D01*
X61468000Y23749000D02*
X79248000Y23749000D01*
X79248000Y23749000D02*
X79248000Y36449000D01*
X79248000Y36449000D02*
X76708000Y36449000D01*
X22900901Y16216334D02*
X22424710Y15883000D01*
X22900901Y15644905D02*
X21900901Y15644905D01*
X21900901Y16025858D01*
X21948520Y16121096D01*
X21996139Y16168715D01*
X22091377Y16216334D01*
X22234234Y16216334D01*
X22329472Y16168715D01*
X22377091Y16121096D01*
X22424710Y16025858D01*
X22424710Y15644905D01*
X22900901Y17168715D02*
X22900901Y16597286D01*
X22900901Y16883000D02*
X21900901Y16883000D01*
X22043758Y16787762D01*
X22138996Y16692524D01*
X22186615Y16597286D01*
X19344901Y12152334D02*
X18868710Y11819000D01*
X19344901Y11580905D02*
X18344901Y11580905D01*
X18344901Y11961858D01*
X18392520Y12057096D01*
X18440139Y12104715D01*
X18535377Y12152334D01*
X18678234Y12152334D01*
X18773472Y12104715D01*
X18821091Y12057096D01*
X18868710Y11961858D01*
X18868710Y11580905D01*
X18440139Y12533286D02*
X18392520Y12580905D01*
X18344901Y12676143D01*
X18344901Y12914239D01*
X18392520Y13009477D01*
X18440139Y13057096D01*
X18535377Y13104715D01*
X18630615Y13104715D01*
X18773472Y13057096D01*
X19344901Y12485667D01*
X19344901Y13104715D01*
X69096095Y22074238D02*
X69238952Y22026619D01*
X69477048Y22026619D01*
X69572286Y22074238D01*
X69619905Y22121857D01*
X69667524Y22217095D01*
X69667524Y22312333D01*
X69619905Y22407571D01*
X69572286Y22455190D01*
X69477048Y22502810D01*
X69286571Y22550429D01*
X69191333Y22598048D01*
X69143714Y22645667D01*
X69096095Y22740905D01*
X69096095Y22836143D01*
X69143714Y22931381D01*
X69191333Y22979000D01*
X69286571Y23026619D01*
X69524667Y23026619D01*
X69667524Y22979000D01*
X70667524Y22121857D02*
X70619905Y22074238D01*
X70477048Y22026619D01*
X70381810Y22026619D01*
X70238952Y22074238D01*
X70143714Y22169476D01*
X70096095Y22264714D01*
X70048476Y22455190D01*
X70048476Y22598048D01*
X70096095Y22788524D01*
X70143714Y22883762D01*
X70238952Y22979000D01*
X70381810Y23026619D01*
X70477048Y23026619D01*
X70619905Y22979000D01*
X70667524Y22931381D01*
X71619905Y22026619D02*
X71048476Y22026619D01*
X71334190Y22026619D02*
X71334190Y23026619D01*
X71238952Y22883762D01*
X71143714Y22788524D01*
X71048476Y22740905D01*
M02*
