G04 #@! TF.FileFunction,Copper,L2,Bot,Signal*
%FSLAX46Y46*%
G04 Gerber Fmt 4.6, Leading zero omitted, Abs format (unit mm)*
G04 Created by KiCad (PCBNEW 4.0.5+dfsg1-4) date Mon Oct 30 15:12:04 2017*
%MOMM*%
%LPD*%
G01*
G04 APERTURE LIST*
%ADD10C,0.100000*%
%ADD11R,5.000000X2.100000*%
%ADD12R,0.550000X1.600000*%
%ADD13R,1.600000X0.550000*%
%ADD14C,2.499360*%
%ADD15C,0.420000*%
%ADD16C,0.400000*%
%ADD17C,1.100000*%
%ADD18C,0.200000*%
G04 APERTURE END LIST*
D10*
D11*
X66593100Y26240000D03*
X66593100Y28780000D03*
X66593100Y31320000D03*
X66593100Y33860000D03*
X74213100Y26240000D03*
X74213100Y28780000D03*
X74213100Y31320000D03*
X74213100Y33860000D03*
X74213100Y33860000D03*
X74213100Y31320000D03*
X74213100Y28780000D03*
X74213100Y26240000D03*
X66593100Y33860000D03*
X66593100Y31320000D03*
X66593100Y28780000D03*
X66593100Y26240000D03*
D12*
X13202000Y33587000D03*
X14002000Y33587000D03*
X14802000Y33587000D03*
X15602000Y33587000D03*
X16402000Y33587000D03*
X17202000Y33587000D03*
X18002000Y33587000D03*
X18802000Y33587000D03*
D13*
X20252000Y32137000D03*
X20252000Y31337000D03*
X20252000Y30537000D03*
X20252000Y29737000D03*
X20252000Y28937000D03*
X20252000Y28137000D03*
X20252000Y27337000D03*
X20252000Y26537000D03*
D12*
X18802000Y25087000D03*
X18002000Y25087000D03*
X17202000Y25087000D03*
X16402000Y25087000D03*
X15602000Y25087000D03*
X14802000Y25087000D03*
X14002000Y25087000D03*
X13202000Y25087000D03*
D13*
X11752000Y26537000D03*
X11752000Y27337000D03*
X11752000Y28137000D03*
X11752000Y28937000D03*
X11752000Y29737000D03*
X11752000Y30537000D03*
X11752000Y31337000D03*
X11752000Y32137000D03*
D14*
X24892000Y46355000D03*
X24892000Y34163000D03*
X25019000Y13792200D03*
X24892000Y29819600D03*
D15*
X17202000Y33587000D02*
X17202000Y34995000D01*
X17202000Y34995000D02*
X16510000Y35687000D01*
D16*
X17202000Y33587000D02*
X17202000Y31947000D01*
X17202000Y31947000D02*
X18002000Y31147000D01*
X18002000Y31147000D02*
X18002000Y25087000D01*
X16510000Y35687000D02*
X16281400Y35687000D01*
X15602000Y35007600D02*
X15602000Y33587000D01*
X16281400Y35687000D02*
X15602000Y35007600D01*
X17202000Y34995000D02*
X16510000Y35687000D01*
D17*
X16510000Y35687000D02*
X16510000Y37465000D01*
D18*
X17202000Y34995000D02*
X16510000Y35687000D01*
D17*
X74213100Y33860000D02*
X74213100Y36657900D01*
X74213100Y36657900D02*
X72898000Y37973000D01*
X17018000Y37973000D02*
X16510000Y37465000D01*
X72898000Y37973000D02*
X17018000Y37973000D01*
D18*
X18002000Y31147000D02*
X18002000Y25087000D01*
X17202000Y31947000D02*
X18002000Y31147000D01*
D15*
X15602000Y25087000D02*
X15602000Y21698000D01*
X16402000Y33587000D02*
X16402000Y30029000D01*
X16402000Y30029000D02*
X15602000Y29229000D01*
X14802000Y33587000D02*
X14802000Y30029000D01*
X14802000Y30029000D02*
X14998700Y29832300D01*
X14998700Y29832300D02*
X15602000Y29229000D01*
X15602000Y25087000D02*
X15602000Y29229000D01*
D16*
X14802000Y30029000D02*
X15602000Y29229000D01*
X15602000Y29229000D02*
X16402000Y30029000D01*
X15602000Y21698000D02*
X15595600Y21691600D01*
D17*
X70381600Y33860000D02*
X70358000Y33836400D01*
X66593100Y33860000D02*
X70381600Y33860000D01*
X15595600Y20218400D02*
X15595600Y21691600D01*
X17500600Y18313400D02*
X15595600Y20218400D01*
X65176400Y18313400D02*
X17500600Y18313400D01*
X70358000Y23495000D02*
X65176400Y18313400D01*
X70358000Y33836400D02*
X70358000Y23495000D01*
X15595600Y21691600D02*
X15595600Y22098000D01*
D18*
X14802000Y30029000D02*
X15602000Y29229000D01*
X15494000Y24979000D02*
X15602000Y25087000D01*
D15*
X20252000Y27337000D02*
X22409400Y27337000D01*
X22409400Y27337000D02*
X24892000Y29819600D01*
D16*
X22409400Y27337000D02*
X24892000Y29819600D01*
D18*
X24892000Y29819600D02*
X24866600Y29819600D01*
X24866600Y29819600D02*
X22352000Y27305000D01*
X22352000Y27305000D02*
X20284000Y27305000D01*
X20284000Y27305000D02*
X20252000Y27337000D01*
D15*
X20252000Y26537000D02*
X23799800Y26537000D01*
X23799800Y26537000D02*
X23958200Y26695400D01*
X23977600Y26695400D02*
X23799800Y26695400D01*
X23958200Y26695400D02*
X23977600Y26695400D01*
D16*
X20252000Y26537000D02*
X23489000Y26537000D01*
X23799800Y26847800D02*
X23799800Y26695400D01*
X23799800Y26695400D02*
X23799800Y26537000D01*
X23489000Y26537000D02*
X23799800Y26847800D01*
D17*
X23799800Y26537000D02*
X28696000Y26537000D01*
X28696000Y26537000D02*
X30939000Y28780000D01*
X30939000Y28780000D02*
X66593100Y28780000D01*
D18*
X66593100Y28780000D02*
X30939000Y28780000D01*
X30939000Y28780000D02*
X28696000Y26537000D01*
D15*
X18802000Y25087000D02*
X18802000Y22727000D01*
X18802000Y22727000D02*
X18796000Y22733000D01*
D17*
X19050000Y22479000D02*
X18796000Y22733000D01*
X19304000Y22479000D02*
X19050000Y22479000D01*
D16*
X18802000Y22727000D02*
X18802000Y22981000D01*
D17*
X66593100Y26240000D02*
X32053000Y26240000D01*
X32053000Y26240000D02*
X28292000Y22479000D01*
X28292000Y22479000D02*
X19304000Y22479000D01*
D18*
X19304000Y22479000D02*
X28292000Y22479000D01*
X28292000Y22479000D02*
X28448000Y22635000D01*
X28448000Y22635000D02*
X28448000Y22733000D01*
X28448000Y22733000D02*
X28448000Y22635000D01*
X32053000Y26240000D02*
X28448000Y22635000D01*
X19304000Y22479000D02*
X18802000Y22981000D01*
D15*
X18002000Y35401000D02*
X18796000Y36195000D01*
X18002000Y33587000D02*
X18002000Y35401000D01*
X18002000Y35401000D02*
X18288000Y35687000D01*
D17*
X24892000Y34163000D02*
X22860000Y36195000D01*
X22860000Y36195000D02*
X18796000Y36195000D01*
D18*
X18034000Y35433000D02*
X18034000Y33619000D01*
X18796000Y36195000D02*
X18288000Y35687000D01*
X18288000Y35687000D02*
X18034000Y35433000D01*
X22860000Y36195000D02*
X18796000Y36195000D01*
X18034000Y33619000D02*
X18002000Y33587000D01*
D17*
X74676000Y40386000D02*
X75311000Y40386000D01*
X8128000Y30353000D02*
X8636000Y29845000D01*
X78740000Y32385000D02*
X78740000Y36957000D01*
X77675000Y31320000D02*
X78740000Y32385000D01*
X74213100Y31320000D02*
X77675000Y31320000D01*
X8128000Y33909000D02*
X8128000Y30353000D01*
X74676000Y40386000D02*
X15240000Y40386000D01*
X14351000Y40386000D02*
X8128000Y34163000D01*
X8128000Y34163000D02*
X8128000Y33909000D01*
X15240000Y40386000D02*
X14351000Y40386000D01*
X75311000Y40386000D02*
X78740000Y36957000D01*
D16*
X11752000Y29737000D02*
X8744000Y29737000D01*
X8744000Y29737000D02*
X8636000Y29845000D01*
D18*
X11752000Y29737000D02*
X8274000Y29737000D01*
X8274000Y29737000D02*
X8382000Y29845000D01*
X8382000Y29845000D02*
X8636000Y29845000D01*
D17*
X74213100Y28780000D02*
X78945000Y28780000D01*
X75184000Y46355000D02*
X24892000Y46355000D01*
X81280000Y40259000D02*
X75184000Y46355000D01*
X81280000Y31115000D02*
X81280000Y40259000D01*
X78945000Y28780000D02*
X81280000Y31115000D01*
X74213100Y26240000D02*
X74213100Y20847700D01*
X67157600Y13792200D02*
X25019000Y13792200D01*
X74213100Y20847700D02*
X67157600Y13792200D01*
M02*
