%TF.GenerationSoftware,KiCad,Pcbnew,4.0.2+dfsg1-stable*%
%TF.CreationDate,2018-05-09T16:15:41+02:00*%
%TF.ProjectId,carte_7816,63617274655F373831362E6B69636164,rev?*%
%TF.FileFunction,Soldermask,Bot*%
%FSLAX46Y46*%
G04 Gerber Fmt 4.6, Leading zero omitted, Abs format (unit mm)*
G04 Created by KiCad (PCBNEW 4.0.2+dfsg1-stable) date mer. 09 mai 2018 16:15:41 CEST*
%MOMM*%
G01*
G04 APERTURE LIST*
%ADD10C,0.100000*%
%ADD11C,0.150000*%
%ADD12R,0.950000X2.000000*%
%ADD13R,2.000000X0.950000*%
%ADD14C,2.899360*%
%ADD15C,0.254000*%
G04 APERTURE END LIST*
D10*
D11*
X85471000Y51562000D02*
X85471000Y2413000D01*
X2413000Y0D02*
X83058000Y0D01*
X0Y51562000D02*
X0Y2413000D01*
X83058000Y53975000D02*
X2413000Y53975000D01*
X83058000Y0D02*
G75*
G03X85471000Y2413000I0J2413000D01*
G01*
X0Y2413000D02*
G75*
G03X2413000Y0I2413000J0D01*
G01*
X2413000Y53975000D02*
G75*
G03X0Y51562000I0J-2413000D01*
G01*
X85471000Y51562000D02*
G75*
G03X83058000Y53975000I-2413000J0D01*
G01*
D12*
X13202000Y33587000D03*
X14002000Y33587000D03*
X14802000Y33587000D03*
X15602000Y33587000D03*
X16402000Y33587000D03*
X17202000Y33587000D03*
X18002000Y33587000D03*
X18802000Y33587000D03*
D13*
X20252000Y32137000D03*
X20252000Y31337000D03*
X20252000Y30537000D03*
X20252000Y29737000D03*
X20252000Y28937000D03*
X20252000Y28137000D03*
X20252000Y27337000D03*
X20252000Y26537000D03*
D12*
X18802000Y25087000D03*
X18002000Y25087000D03*
X17202000Y25087000D03*
X16402000Y25087000D03*
X15602000Y25087000D03*
X14802000Y25087000D03*
X14002000Y25087000D03*
X13202000Y25087000D03*
D13*
X11752000Y26537000D03*
X11752000Y27337000D03*
X11752000Y28137000D03*
X11752000Y28937000D03*
X11752000Y29737000D03*
X11752000Y30537000D03*
X11752000Y31337000D03*
X11752000Y32137000D03*
D14*
X24892000Y46355000D03*
X24892000Y34163000D03*
X25019000Y13792200D03*
X24892000Y29819600D03*
D15*
G36*
X68961000Y32893000D02*
X64008000Y32893000D01*
X64008000Y35052000D01*
X68961000Y35052000D01*
X68961000Y32893000D01*
X68961000Y32893000D01*
G37*
X68961000Y32893000D02*
X64008000Y32893000D01*
X64008000Y35052000D01*
X68961000Y35052000D01*
X68961000Y32893000D01*
G36*
X68961000Y30353000D02*
X64008000Y30353000D01*
X64008000Y32385000D01*
X68961000Y32385000D01*
X68961000Y30353000D01*
X68961000Y30353000D01*
G37*
X68961000Y30353000D02*
X64008000Y30353000D01*
X64008000Y32385000D01*
X68961000Y32385000D01*
X68961000Y30353000D01*
G36*
X68961000Y27813000D02*
X64008000Y27813000D01*
X64008000Y29845000D01*
X68961000Y29845000D01*
X68961000Y27813000D01*
X68961000Y27813000D01*
G37*
X68961000Y27813000D02*
X64008000Y27813000D01*
X64008000Y29845000D01*
X68961000Y29845000D01*
X68961000Y27813000D01*
G36*
X68961000Y25273000D02*
X64008000Y25273000D01*
X64008000Y27305000D01*
X68961000Y27305000D01*
X68961000Y25273000D01*
X68961000Y25273000D01*
G37*
X68961000Y25273000D02*
X64008000Y25273000D01*
X64008000Y27305000D01*
X68961000Y27305000D01*
X68961000Y25273000D01*
G36*
X76708000Y32893000D02*
X71628000Y32893000D01*
X71628000Y35052000D01*
X76708000Y35052000D01*
X76708000Y32893000D01*
X76708000Y32893000D01*
G37*
X76708000Y32893000D02*
X71628000Y32893000D01*
X71628000Y35052000D01*
X76708000Y35052000D01*
X76708000Y32893000D01*
G36*
X76708000Y30353000D02*
X71628000Y30353000D01*
X71628000Y32385000D01*
X76708000Y32385000D01*
X76708000Y30353000D01*
X76708000Y30353000D01*
G37*
X76708000Y30353000D02*
X71628000Y30353000D01*
X71628000Y32385000D01*
X76708000Y32385000D01*
X76708000Y30353000D01*
G36*
X76708000Y27813000D02*
X71628000Y27813000D01*
X71628000Y29845000D01*
X76708000Y29845000D01*
X76708000Y27813000D01*
X76708000Y27813000D01*
G37*
X76708000Y27813000D02*
X71628000Y27813000D01*
X71628000Y29845000D01*
X76708000Y29845000D01*
X76708000Y27813000D01*
G36*
X76708000Y25146000D02*
X71628000Y25146000D01*
X71628000Y27305000D01*
X76708000Y27305000D01*
X76708000Y25146000D01*
X76708000Y25146000D01*
G37*
X76708000Y25146000D02*
X71628000Y25146000D01*
X71628000Y27305000D01*
X76708000Y27305000D01*
X76708000Y25146000D01*
M02*
