M48
;DRILL file {KiCad 4.0.5+dfsg1-4} date Wed Jun 28 12:30:47 2017
;FORMAT={-:-/ absolute / inch / decimal}
FMAT,2
INCH,TZ
T1C0.031
T2C0.039
%
G90
G05
M72
T1
X0.3348Y-0.3967
X0.3348Y-0.4967
X0.3348Y-0.5967
X0.3348Y-0.6967
X0.3348Y-0.7967
X0.3348Y-0.8967
X0.3348Y-0.9967
X0.3348Y-1.0967
X0.3348Y-1.1967
X0.3348Y-1.2967
X0.3348Y-1.3967
X0.3348Y-1.4967
X0.3348Y-1.5967
X0.3348Y-1.6967
X0.6348Y-0.3967
X0.6348Y-0.4967
X0.6348Y-0.5967
X0.6348Y-0.6967
X0.6348Y-0.7967
X0.6348Y-0.8967
X0.6348Y-0.9967
X0.6348Y-1.0967
X0.6348Y-1.1967
X0.6348Y-1.2967
X0.6348Y-1.3967
X0.6348Y-1.4967
X0.6348Y-1.5967
X0.6348Y-1.6967
T2
X0.92Y-0.45
X0.92Y-0.7406
X0.92Y-1.12
X0.92Y-1.395
T0
M30
